<svg width="20" height="5" viewBox="0 0 20 5" fill="none" xmlns="http://www.w3.org/2000/svg">
<path d="M15.7144 1.08392C15.7124 1.08392 15.7098 1.08392 15.7071 1.08392C15.5637 1.08392 15.427 1.10845 15.2989 1.15353L15.3076 1.15088C14.9161 1.28878 14.6187 1.605 14.512 1.99879L14.51 2.00741L14.1719 3.25442C14.1505 3.32536 14.1378 3.40624 14.1378 3.49043C14.1378 3.55606 14.1452 3.61971 14.1599 3.6807L14.1585 3.67473C14.1899 3.81594 14.2492 3.93991 14.3313 4.04665L14.3293 4.04466C14.4126 4.15272 14.518 4.23957 14.638 4.30056L14.6434 4.30321C14.7607 4.36354 14.8988 4.39867 15.0462 4.39867C15.0509 4.39867 15.0549 4.39867 15.0595 4.39867H17.1443C17.1456 4.39867 17.1476 4.39867 17.149 4.39867C17.2523 4.39867 17.347 4.36354 17.4217 4.30453L17.4211 4.3052C17.4997 4.24553 17.5584 4.16266 17.5871 4.0672L17.5878 4.06388L17.7625 3.40889H15.4723C15.381 3.40756 15.3076 3.33398 15.3076 3.24315C15.3076 3.2279 15.3096 3.21332 15.3136 3.19873V3.20006L15.5624 2.26663C15.5804 2.21226 15.6131 2.16652 15.6557 2.13271L15.6564 2.13205C15.6964 2.0989 15.7484 2.07901 15.8051 2.07901C15.8058 2.07901 15.8058 2.07901 15.8065 2.07901H16.8328C16.9029 2.07901 16.9596 2.13603 16.9596 2.20564C16.9596 2.21757 16.9582 2.22884 16.9549 2.23945L16.9335 2.32165C16.9222 2.37535 16.8749 2.41513 16.8182 2.41513C16.8162 2.41513 16.8135 2.41513 16.8115 2.41513H16.1366C16.1339 2.41513 16.1306 2.41513 16.1272 2.41513C16.0239 2.41513 15.9292 2.4496 15.8531 2.50794L15.8545 2.50728C15.7765 2.56694 15.7204 2.65047 15.6958 2.74727L15.6951 2.75058L15.5844 3.15631H17.2543C17.257 3.15631 17.2597 3.15631 17.2623 3.15631C17.4311 3.15631 17.5871 3.09995 17.7118 3.00515L17.7098 3.00648C17.8399 2.90902 17.9346 2.77047 17.9753 2.61136L17.9766 2.60672L18.0766 2.23414C18.096 2.16387 18.1073 2.08233 18.1073 1.99879C18.1073 1.93184 18.1 1.8662 18.086 1.80256L18.0873 1.80853C18.058 1.66798 17.9986 1.54467 17.9166 1.43926L17.9179 1.44125C17.8339 1.33452 17.7298 1.24701 17.6105 1.18469L17.6051 1.18204C17.4877 1.11972 17.349 1.08326 17.201 1.08326C17.197 1.08326 17.1936 1.08326 17.1896 1.08326H15.7131L15.7144 1.08392ZM10.8867 1.08392L10.0684 4.14012C10.063 4.1567 10.0597 4.17592 10.0597 4.19581C10.0597 4.24288 10.077 4.28664 10.1057 4.31978C10.1424 4.36752 10.1997 4.39867 10.2644 4.39867C10.2658 4.39867 10.2671 4.39867 10.2684 4.39867H10.8606C10.8613 4.39867 10.8626 4.39867 10.864 4.39867C10.9407 4.39867 11.0114 4.37348 11.0687 4.33172L11.0681 4.33238C11.1267 4.29061 11.1688 4.23028 11.1868 4.16068L11.1874 4.15869L11.7243 2.16188H12.3452C12.3472 2.16188 12.3492 2.16188 12.3519 2.16188C12.4459 2.16188 12.5353 2.18508 12.6133 2.22552L12.61 2.2242C12.6893 2.2653 12.7553 2.32099 12.8074 2.38861L12.8087 2.38994C12.8587 2.45557 12.8961 2.53313 12.9154 2.61799L12.9161 2.62197C12.9247 2.65777 12.9294 2.69887 12.9294 2.7413C12.9294 2.795 12.9214 2.84737 12.9067 2.89643L12.9081 2.89245L12.5766 4.14012C12.5713 4.15736 12.5679 4.17725 12.5679 4.19714C12.5679 4.30851 12.6586 4.39867 12.7707 4.39867C12.7727 4.39867 12.7747 4.39867 12.7767 4.39867H13.3709C13.3716 4.39867 13.3722 4.39867 13.3736 4.39867C13.4496 4.39867 13.519 4.37348 13.5756 4.33172L13.575 4.33238C13.6337 4.28995 13.6763 4.22896 13.6937 4.15802L13.6944 4.15603L13.9711 3.12183C14.0085 2.99455 14.0298 2.84803 14.0298 2.69688C14.0298 2.58086 14.0171 2.46816 13.9931 2.35878L13.9951 2.36938C13.9418 2.11879 13.8371 1.89869 13.6917 1.71107L13.6944 1.71505C13.5456 1.52479 13.3596 1.37032 13.1468 1.26027L13.1375 1.25563C12.9281 1.14624 12.6806 1.0826 12.4172 1.0826C12.4112 1.0826 12.4045 1.0826 12.3985 1.0826H10.8887L10.8867 1.08392ZM1.65261 1.08392C1.65127 1.08392 1.64994 1.08392 1.64794 1.08392C1.4592 1.08392 1.2778 1.11641 1.10974 1.17607L1.12108 1.17276C0.945013 1.23375 0.79229 1.31662 0.656241 1.42004L0.660242 1.41739C0.380806 1.63152 0.175398 1.92918 0.0793624 2.27193L0.0766948 2.2832L0.0540198 2.36607C0.0193404 2.4907 0 2.63324 0 2.78108C0 3.15365 0.126046 3.49706 0.338791 3.77086L0.336123 3.76688C0.484844 3.95715 0.670913 4.11162 0.883657 4.22167L0.892994 4.22564C1.10174 4.33503 1.34916 4.4 1.61192 4.4C1.61726 4.4 1.62193 4.4 1.62726 4.4H2.0134L2.23482 3.5859C2.24015 3.56932 2.24349 3.54944 2.24349 3.52955C2.24349 3.48314 2.22682 3.44071 2.19881 3.40756C2.16213 3.35917 2.1041 3.32801 2.03941 3.32801C2.03741 3.32801 2.03541 3.32801 2.03408 3.32801H1.68195C1.68062 3.32801 1.67928 3.32801 1.67795 3.32801C1.58258 3.32801 1.49255 3.30547 1.41318 3.26503L1.41652 3.26635C1.33649 3.22724 1.26913 3.17288 1.21711 3.10592L1.21645 3.1046C1.16709 3.03896 1.13041 2.96074 1.11107 2.87588L1.11041 2.8719C1.10174 2.83477 1.09707 2.79168 1.09707 2.74793C1.09707 2.69158 1.10507 2.63788 1.11974 2.58617L1.11841 2.59015C1.15576 2.46286 1.23112 2.35546 1.33049 2.27856L1.33182 2.27723C1.42586 2.20497 1.54523 2.16122 1.67461 2.16122C1.67728 2.16122 1.67928 2.16122 1.68195 2.16122H2.26216C2.26416 2.16122 2.2655 2.16122 2.2675 2.16122C2.3722 2.16122 2.46824 2.12542 2.54427 2.06575L2.5436 2.06642C2.62296 2.00542 2.68098 1.92123 2.70833 1.82378L2.70899 1.82046L2.9024 1.08326L1.65261 1.08392ZM6.98389 1.0753L6.87319 1.4923C6.86318 1.52744 6.85785 1.56854 6.85785 1.61031C6.85785 1.64478 6.86185 1.67859 6.86852 1.71041L6.86785 1.7071C6.88252 1.77737 6.91187 1.83902 6.95188 1.8914L6.95122 1.89007C6.99256 1.94311 7.04392 1.98554 7.1026 2.01669L7.10527 2.01802C7.16463 2.04918 7.23465 2.06774 7.30935 2.06774C7.31135 2.06774 7.31335 2.06774 7.31535 2.06774H9.11267C9.11401 2.06774 9.11534 2.06774 9.11668 2.06774C9.14335 2.06774 9.16669 2.07967 9.1827 2.0989C9.1927 2.11216 9.19871 2.1294 9.19871 2.1473C9.19871 2.15591 9.19737 2.16453 9.1947 2.17249L9.17803 2.23149L8.90793 3.22658L8.89726 3.27232C8.88993 3.30812 8.86992 3.33862 8.84191 3.35917C8.8139 3.37972 8.77788 3.39232 8.73987 3.39232C8.73854 3.39232 8.73654 3.39232 8.7352 3.39232H7.6468C7.64614 3.39232 7.6448 3.39232 7.64347 3.39232C7.60412 3.39232 7.56944 3.37375 7.54677 3.34525C7.52943 3.32536 7.51876 3.2995 7.51876 3.27166C7.51876 3.25973 7.52076 3.24779 7.52409 3.23719C7.53543 3.18349 7.58278 3.14504 7.63947 3.14504C7.64214 3.14504 7.6448 3.14504 7.6468 3.14504H8.31972C8.32105 3.14504 8.32305 3.14504 8.32505 3.14504C8.42776 3.14504 8.52246 3.1099 8.59782 3.05156L8.59715 3.05222C8.67585 2.99189 8.73454 2.90902 8.76321 2.8129L8.76388 2.80958L8.87392 2.39723H7.36537C7.3647 2.39723 7.36403 2.39723 7.36337 2.39723C7.25066 2.39723 7.14195 2.41712 7.04192 2.45292L7.04858 2.45093C6.94588 2.48739 6.85651 2.53711 6.77715 2.5981L6.77915 2.59678C6.69645 2.66042 6.62576 2.73467 6.56774 2.8182L6.56574 2.82152C6.50839 2.90306 6.46304 2.99919 6.43703 3.10194L6.43569 3.10791L6.41235 3.19078C6.39101 3.2637 6.37901 3.34657 6.37901 3.43276C6.37901 3.50369 6.38701 3.57198 6.40235 3.63827L6.40101 3.6323C6.43369 3.77948 6.49505 3.90809 6.57975 4.01947L6.57775 4.01681C6.75314 4.24553 7.02724 4.39204 7.33602 4.39204C7.33802 4.39204 7.34069 4.39204 7.34269 4.39204L9.14002 4.39735C9.14135 4.39735 9.14335 4.39735 9.14469 4.39735C9.49081 4.39735 9.78159 4.16399 9.86829 3.84776L9.86962 3.84246L10.3071 2.22685C10.3258 2.1579 10.3365 2.07835 10.3365 1.99681C10.3365 1.9272 10.3285 1.86024 10.3138 1.79527L10.3151 1.80124C10.2838 1.66069 10.2244 1.53672 10.1431 1.43131L10.1444 1.4333C10.0597 1.32656 9.95498 1.23972 9.83561 1.1774L9.83027 1.17475C9.71223 1.11177 9.57284 1.0753 9.42412 1.0753C9.42079 1.0753 9.41745 1.0753 9.41479 1.0753H6.98056H6.98389ZM19.1944 0.000662586C19.1924 0.000662586 19.1904 0.000662586 19.1884 0.000662586C19.1117 0.000662586 19.0416 0.0265181 18.985 0.0689469L18.9856 0.0682837C18.9276 0.112038 18.8863 0.174356 18.8696 0.245955L18.8689 0.247943L17.7572 4.39867C17.7585 4.39867 17.7605 4.39867 17.7625 4.39867C17.9306 4.39867 18.092 4.3695 18.242 4.31581L18.232 4.31912C18.3901 4.26343 18.5268 4.18918 18.6488 4.09637L18.6455 4.09902C18.7702 4.00356 18.8763 3.89218 18.963 3.76622L18.9663 3.76158C19.0523 3.63562 19.1197 3.48911 19.159 3.33132L19.161 3.32204L19.9913 0.259877C19.9967 0.243303 20 0.224077 20 0.204188C20 0.157119 19.9827 0.113365 19.954 0.0802172C19.916 0.0318218 19.8579 0.0013258 19.7919 0.0013258C19.7899 0.0013258 19.7886 0.0013258 19.7866 0.0013258L19.1944 0.000662586ZM3.82073 0.000662586C3.81807 0.000662586 3.8154 0.000662586 3.81273 0.000662586C3.70869 0.000662586 3.61266 0.0357991 3.53663 0.0948016L3.5373 0.0941391C3.4586 0.155793 3.40058 0.240651 3.3739 0.338767L3.37324 0.342082L2.28217 4.39801H3.05045C3.05179 4.39801 3.05379 4.39801 3.05512 4.39801C3.15849 4.39801 3.25319 4.36287 3.32789 4.30387L3.32722 4.30453C3.40592 4.24487 3.4646 4.162 3.49328 4.06654L3.49395 4.06322L4.30091 1.07729H4.92114C4.9218 1.07729 4.92314 1.07729 4.92381 1.07729C5.01917 1.07729 5.10921 1.10116 5.1879 1.14226L5.18457 1.14094C5.2646 1.18138 5.33129 1.23706 5.38397 1.30469L5.38531 1.30601C5.43533 1.37164 5.47267 1.44987 5.49201 1.53473L5.49268 1.53871C5.50135 1.57451 5.50602 1.61561 5.50602 1.65804C5.50602 1.71174 5.49802 1.76411 5.48334 1.81317L5.48401 1.80919C5.41799 2.06178 5.19057 2.24475 4.92047 2.24475H4.59969C4.59769 2.24475 4.59568 2.24475 4.59368 2.24475C4.48965 2.24475 4.39361 2.27988 4.31758 2.33889L4.31825 2.33822C4.23955 2.39789 4.18087 2.48076 4.15219 2.57622L4.15152 2.57954L3.95145 3.32204H4.95248C4.95382 3.32204 4.95448 3.32204 4.95582 3.32204C5.51536 3.32204 6.00887 3.03896 6.29898 2.60937L6.30231 2.6034C6.39701 2.46419 6.47237 2.30243 6.52039 2.1294L6.52306 2.11813L6.54573 2.03526C6.58308 1.90996 6.60442 1.7661 6.60442 1.61694C6.60442 1.49893 6.59108 1.38424 6.56574 1.27353L6.56774 1.28413C6.45903 0.796203 6.14292 0.39777 5.71743 0.178334L5.70809 0.174356C5.49935 0.0649688 5.25193 0 4.98916 0C4.98383 0 4.97916 0 4.97382 0L3.82073 0.000662586Z" fill="white"/>
</svg>
