<svg width="13" height="20" viewBox="0 0 13 20" fill="none" xmlns="http://www.w3.org/2000/svg">
<path d="M6.6 10.0001C6.6 8.21153 8.01327 6.76724 9.75 6.76724C11.4882 6.76724 12.9 8.2101 12.9 10.0001C12.9 11.7887 11.4881 13.233 9.75 13.233C8.01465 13.233 6.6 11.79 6.6 10.0001Z" fill="white" stroke="#2626A0" stroke-width="0.2"/>
<path d="M0.1 16.667C0.1 14.8784 1.51333 13.4328 3.25 13.4328H6.4V16.667C6.4 18.4542 4.9867 19.8999 3.25 19.8999C1.5133 19.8999 0.1 18.4542 0.1 16.667Z" fill="white" stroke="#2626A0" stroke-width="0.2"/>
<path d="M9.75 6.56714H6.6V0.1H9.75C11.4881 0.1 12.9 1.54567 12.9 3.33286C12.9 5.1215 11.4881 6.56714 9.75 6.56714Z" fill="white" stroke="#2626A0" stroke-width="0.2"/>
<path d="M3.25 6.56714C1.51333 6.56714 0.1 5.12147 0.1 3.33286C0.1 1.5457 1.5133 0.1 3.25 0.1H6.4V6.56714H3.25Z" fill="white" stroke="#2626A0" stroke-width="0.2"/>
<path d="M3.25 13.233C1.51327 13.233 0.1 11.7887 0.1 10.0001C0.1 8.21013 1.51325 6.76724 3.25 6.76724H6.4V13.233H3.25Z" fill="white" stroke="#2626A0" stroke-width="0.2"/>
</svg>
