<svg width="20" height="17" viewBox="0 0 20 17" fill="none" xmlns="http://www.w3.org/2000/svg">
<path d="M10.1589 0.00203086C6.57823 -0.0793892 3.40066 2.29494 2.46313 5.75968C2.50563 5.7434 2.41751 5.7697 2.46313 5.75968C-0.766321 7.88975 -0.805072 12.5313 2.25813 14.8969L2.26125 14.8906L2.255 14.9169C3.23503 15.6572 4.42631 16.0524 5.65384 16.0487H9.96394L9.99019 16.0712H14.3165C19.8898 16.1169 22.1292 8.88809 17.5135 5.75968C17.1166 4.28848 16.2991 2.9676 15.1634 1.95924L15.1278 1.99494L15.1309 1.95235C13.754 0.735437 11.9927 0.0439935 10.1602 0.0014046L10.1589 0.00203086ZM9.85956 3.46614C10.8946 3.43044 11.959 3.77303 12.7634 4.42502C13.769 5.26678 14.3422 6.51939 14.3159 7.83088V8.26491C17.2585 8.20604 17.2585 12.6591 14.3159 12.6002H9.98957L9.98332 12.6065V12.5739H5.65384C5.34758 12.5739 5.04507 12.5088 4.76506 12.3816C3.38815 11.7585 3.0594 9.94467 4.12692 8.8718C5.1982 7.80207 7.00449 8.13151 7.62951 9.51126L10.1396 6.99601C9.30642 5.90624 8.10202 5.15968 6.75761 4.89537C6.77386 4.88911 6.79011 4.87596 6.80324 4.87909C7.59076 4.01165 8.69453 3.50247 9.86331 3.46677L9.85956 3.46614Z" fill="white"/>
</svg>
