<svg width="150" height="150" viewBox="0 0 150 150" fill="none" xmlns="http://www.w3.org/2000/svg">
<path fill-rule="evenodd" clip-rule="evenodd" d="M4.53846 4.53845C4.53846 4.53845 4.53846 39.5552 4.53846 59.6153C4.53846 73.6088 4.5 109.561 4.5 109.561C4.5 109.561 25.8462 109.561 35.3077 109.561C35.3077 109.561 35.3077 112.977 35.3077 115.568V146.231L64.5 117.5C65.6194 116.381 66 116 67.5556 114.599C69.9429 114.662 72.4233 114.692 75 114.692C101.433 114.692 145.462 114.692 145.462 114.692C145.462 114.692 145.462 79.6753 145.462 59.6153C145.462 39.5552 145.462 4.53845 145.462 4.53845C145.462 4.53845 101.433 4.53845 75 4.53845C48.5671 4.53845 4.53846 4.53845 4.53846 4.53845ZM0 0C0 0 48.4917 0 75 0C101.508 0 150 0 150 0C150 0 150 38.4991 150 59.6153C150 80.7314 150 119.23 150 119.23C150 119.23 101.508 119.231 75 119.231C73.2093 119.231 71.4564 119.217 69.7408 119.187L40.6179 148.31C38.9679 149.96 36.4865 150.454 34.3307 149.561C32.1749 148.668 30.7692 146.564 30.7692 144.231V113.808H0C0 113.808 0 74.3779 0 59.6153C0 38.499 0 0 0 0Z" fill="url(#paint0_linear_167_1004)"/>
<path d="M38.4615 44.2311C38.4615 41.0449 41.0445 38.4619 44.2308 38.4619H105.769C108.956 38.4619 111.538 41.0449 111.538 44.2311C111.538 47.4174 108.956 50.0004 105.769 50.0004H44.2308C41.0445 50.0004 38.4615 47.4174 38.4615 44.2311Z" stroke="url(#paint1_linear_167_1004)" stroke-width="2" stroke-linecap="round" stroke-linejoin="round"/>
<path d="M38.4615 75.0003C38.4615 71.8141 41.0445 69.2311 44.2308 69.2311H82.6923C85.8786 69.2311 88.4615 71.8141 88.4615 75.0003C88.4615 78.1866 85.8786 80.7696 82.6923 80.7696H44.2308C41.0445 80.7696 38.4615 78.1866 38.4615 75.0003Z" stroke="url(#paint2_linear_167_1004)" stroke-width="2" stroke-linecap="round" stroke-linejoin="round"/>
<defs>
<linearGradient id="paint0_linear_167_1004" x1="-56.3077" y1="-18.8077" x2="210.346" y2="180.923" gradientUnits="userSpaceOnUse">
<stop offset="0.116054" stop-color="#9C0000"/>
<stop offset="0.207081" stop-color="#FFF735"/>
<stop offset="0.498762" stop-color="#FF6C4D"/>
<stop offset="0.759022" stop-color="#FF3C3C"/>
</linearGradient>
<linearGradient id="paint1_linear_167_1004" x1="11.0296" y1="33.1572" x2="86.8722" y2="131.28" gradientUnits="userSpaceOnUse">
<stop offset="0.116054" stop-color="#9C0000"/>
<stop offset="0.207081" stop-color="#FFF735"/>
<stop offset="0.498762" stop-color="#FF6C4D"/>
<stop offset="0.759022" stop-color="#FF3C3C"/>
</linearGradient>
<linearGradient id="paint2_linear_167_1004" x1="11.0296" y1="33.1572" x2="86.8722" y2="131.28" gradientUnits="userSpaceOnUse">
<stop offset="0.116054" stop-color="#9C0000"/>
<stop offset="0.207081" stop-color="#FFF735"/>
<stop offset="0.498762" stop-color="#FF6C4D"/>
<stop offset="0.759022" stop-color="#FF3C3C"/>
</linearGradient>
</defs>
</svg>
