<svg width="50" height="50" viewBox="0 0 50 50" fill="none" xmlns="http://www.w3.org/2000/svg">
<circle cx="25" cy="25" r="25" fill="#FF3C3C"/>
<path d="M34.1582 37.5H33.8294C30.1256 37.0971 26.5671 35.8342 23.4377 33.8122C20.5306 31.9607 18.0624 29.4973 16.205 26.5938C14.1784 23.4563 12.9153 19.8874 12.5172 16.1735C12.4717 15.7306 12.5166 15.2829 12.6493 14.8579C12.782 14.4328 12.9997 14.0391 13.2891 13.7007C13.5706 13.3577 13.918 13.0748 14.3109 12.8685C14.7037 12.6623 15.134 12.537 15.5761 12.5H19.2925C20.0974 12.5008 20.8755 12.7894 21.4863 13.3137C22.0971 13.8379 22.5002 14.5633 22.623 15.3588C22.7588 16.3806 23.0129 17.3832 23.3806 18.3462C23.6041 18.9514 23.6503 19.6078 23.5137 20.2383C23.3769 20.8688 23.063 21.4472 22.6087 21.9054L21.7368 22.7773C23.1096 24.9445 24.951 26.7763 27.1256 28.1375L27.9975 27.2799C28.4556 26.8256 29.0341 26.5117 29.6646 26.3749C30.2951 26.2383 30.9515 26.2844 31.5567 26.508C32.5208 26.8722 33.5229 27.1264 34.5441 27.2656C35.3531 27.3872 36.09 27.7999 36.6164 28.4262C37.1427 29.0527 37.4225 29.8496 37.4029 30.6675V34.0981C37.4029 34.9903 37.0494 35.8462 36.4199 36.4784C35.7904 37.1106 34.936 37.4677 34.0438 37.4714L34.1582 37.5ZM19.2925 14.6298H15.8763C15.7085 14.6409 15.5448 14.6859 15.3949 14.762C15.2451 14.8382 15.1122 14.9439 15.0044 15.0729C14.8994 15.1937 14.82 15.3345 14.7708 15.4868C14.7217 15.6391 14.7039 15.7998 14.7185 15.9591C15.0651 19.3279 16.1959 22.5686 18.0204 25.4217C19.7022 28.0613 21.9416 30.3007 24.5813 31.9826C27.4362 33.8262 30.6805 34.9811 34.0581 35.3559C34.2338 35.3658 34.4096 35.3392 34.5744 35.2777C34.7392 35.2161 34.8896 35.1211 35.0158 34.9986C35.2434 34.7653 35.3716 34.4527 35.3732 34.1266V30.7104C35.3796 30.4097 35.2755 30.1169 35.0806 29.8876C34.8856 29.6585 34.6133 29.5087 34.3154 29.4668C33.1346 29.308 31.9746 29.0204 30.8563 28.6092C30.636 28.5269 30.3969 28.5086 30.1666 28.5567C29.9363 28.6048 29.7245 28.7171 29.5555 28.8808L28.1261 30.3102C27.9588 30.4734 27.7431 30.5783 27.5114 30.6092C27.2795 30.6401 27.0441 30.5953 26.8397 30.4817C23.7897 28.7581 21.265 26.2386 19.5355 23.1918C19.4171 22.9888 19.3697 22.7521 19.4008 22.5191C19.4319 22.2863 19.5396 22.0703 19.707 21.9054L21.1364 20.476C21.3004 20.3102 21.4131 20.1008 21.4613 19.8727C21.5094 19.6446 21.491 19.4074 21.408 19.1895C20.9952 18.0717 20.7076 16.9116 20.5504 15.7304C20.5149 15.4235 20.3665 15.1407 20.1339 14.9373C19.9014 14.7338 19.6015 14.6242 19.2925 14.6298Z" fill="white"/>
</svg>
