<svg width="150" height="150" viewBox="0 0 150 150" fill="none" xmlns="http://www.w3.org/2000/svg">
<rect x="5e-05" y="5e-05" width="150" height="150" stroke="black" stroke-width="0.0001"/>
<path fill-rule="evenodd" clip-rule="evenodd" d="M40.065 16C26.7093 16 0.00165561 16 0.00165561 16C0.00165561 16 0.31902 34.8893 0.00165561 47.5134C-0.0338109 48.9241 0.501807 50.2894 1.48707 51.2998C2.47234 52.3101 3.82378 52.8799 5.23499 52.8799C15.7957 52.8799 24.3601 66.4751 24.3601 77.0749C24.3601 87.6498 15.8144 101.215 5.20787 101.27C3.80138 101.277 2.45697 101.85 1.47761 102.86C0.498247 103.869 -0.0336924 105.23 0.00165561 106.636C0.31902 119.261 0.00165561 138.15 0.00165561 138.15C0.00165561 138.15 26.7093 138.15 40.065 138.15H53.987C53.9956 138.15 54.0043 138.15 54.0131 138.15H54.0228L54.0391 138.15H109.865C123.788 138.15 150 138.15 150 138.15C150 138.15 150 111.937 150 98.0149V56.135C150 42.2124 150 16 150 16C150 16 123.788 16 109.865 16H54.0131H40.065ZM53.2481 108.485V133.68H109.865C123.863 133.68 145.53 133.68 145.53 133.68C145.53 133.68 145.53 112.012 145.53 98.0149V56.135C145.53 42.1375 145.53 20.47 145.53 20.47C145.53 20.47 123.863 20.47 109.865 20.47H53.2481V45.665C47 45.665 54.0131 45.665 54.0131 45.665C54.0131 45.665 55.5 45.665 48.7782 45.665V20.47H40.065C26.6876 20.47 4.70243 20.47 4.70243 20.47C4.70243 20.47 4.70243 38.5 4.70386 47.915C18.4602 50.4894 28.8301 62.5966 28.8301 77.0749C28.8301 91.5805 18.4378 103.608 4.70243 106.216C4.70243 116.5 4.70386 133.68 4.70386 133.68C4.70386 133.68 26.6876 133.68 40.065 133.68H48.7782V108.485C59.2481 108.485 54.0391 108.485 54.0391 108.485C54.0391 108.485 49 108.485 53.2481 108.485Z" fill="url(#paint0_linear_167_1005)"/>
<path d="M87.1868 56.6361L87.191 56.6274L87.1951 56.6186C89.7428 51.1309 97.3684 51.3548 99.9151 56.5688L99.9179 56.5743L103.707 64.2125L103.94 64.6826L104.459 64.7578L112.846 65.9734L112.854 65.9744L112.855 65.9746C112.857 65.9748 112.858 65.975 112.86 65.9752C118.633 66.8278 121.113 73.9979 116.788 78.1654L116.785 78.1678L110.7 84.0701L110.32 84.4388L110.412 84.9605L111.871 93.294L111.872 93.2965L111.872 93.2987L111.873 93.3022C112.898 99.1231 106.76 103.629 101.531 100.849L101.528 100.848L101.518 100.842L101.517 100.842L94.0347 96.8878L93.5674 96.6409L93.1002 96.8878L85.5997 100.852L85.5951 100.854L85.5649 100.87L85.5633 100.87C80.2836 103.595 74.2439 99.1252 75.2603 93.3121L75.2604 93.3121L75.2628 93.2987L76.7248 84.9531L76.8156 84.4347L76.4397 84.0663L70.4117 78.16L70.4117 78.16L70.4069 78.1553C66.0957 73.9867 68.5764 66.8273 74.3451 65.9752L74.3508 65.9745L74.3508 65.9745L74.3584 65.9734L82.7365 64.7591L83.2598 64.6832L83.4917 64.208L87.1868 56.6361Z" stroke="url(#paint1_linear_167_1005)" stroke-width="2"/>
<defs>
<linearGradient id="paint0_linear_167_1005" x1="-56.3077" y1="0.684308" x2="169.179" y2="208.088" gradientUnits="userSpaceOnUse">
<stop offset="0.116054" stop-color="#9C0000"/>
<stop offset="0.207081" stop-color="#FFF735"/>
<stop offset="0.498762" stop-color="#FF6C4D"/>
<stop offset="0.759022" stop-color="#FF3C3C"/>
</linearGradient>
<linearGradient id="paint1_linear_167_1005" x1="47.4167" y1="45.1711" x2="139.054" y2="116.02" gradientUnits="userSpaceOnUse">
<stop offset="0.116054" stop-color="#9C0000"/>
<stop offset="0.207081" stop-color="#FFF735"/>
<stop offset="0.498762" stop-color="#FF6C4D"/>
<stop offset="0.759022" stop-color="#FF3C3C"/>
</linearGradient>
</defs>
</svg>
