<svg width="20" height="20" viewBox="0 0 20 20" fill="none" xmlns="http://www.w3.org/2000/svg">
<path fill-rule="evenodd" clip-rule="evenodd" d="M10 20C15.525 20 20 15.52 20 10C20 4.475 15.525 0 10 0C4.475 0 0 4.475 0 10C0 15.52 4.475 20 10 20ZM2.14297 10.0025C2.14297 9.27606 2.72286 8.68305 3.44407 8.68305C4.16041 8.68305 4.74518 9.27106 4.74518 10.0025C4.74518 10.7289 4.16041 11.3219 3.44407 11.3219C2.72773 11.3219 2.14297 10.7289 2.14297 10.0025ZM12.2594 16.481C11.9037 15.8485 12.1132 15.043 12.737 14.6773C13.3558 14.3166 14.1502 14.534 14.5156 15.1616C14.8713 15.7941 14.6618 16.5996 14.038 16.9653C13.4143 17.331 12.62 17.1136 12.2594 16.481ZM7.88825 6.8497C6.90883 7.54641 6.27047 8.69784 6.27047 10.0025C6.27047 11.3071 6.90883 12.4585 7.88825 13.1553L6.93804 14.7712C5.79775 14.0003 4.94984 12.8192 4.59898 11.4405C5.00832 11.0995 5.27146 10.5806 5.27146 10.0025C5.27146 9.42427 5.00832 8.90541 4.59898 8.56441C4.95472 7.1857 5.79775 6.00463 6.93804 5.23373L7.88825 6.8497ZM13.8578 9.66148C13.6872 7.68977 12.0596 6.14791 10.0714 6.14791C9.50125 6.14791 8.95547 6.27641 8.47304 6.50377L7.56668 4.86311C8.32197 4.4826 9.1699 4.27011 10.0714 4.27011C10.5928 4.27011 11.0996 4.34423 11.582 4.47766C11.6698 5.01136 11.9768 5.49565 12.4738 5.7872C12.966 6.07384 13.5361 6.10348 14.0332 5.9157C14.998 6.87434 15.6218 8.17898 15.7144 9.63184L13.8578 9.66148ZM8.46818 13.5012C8.95547 13.7285 9.50125 13.857 10.0714 13.857C12.0596 13.857 13.6872 12.3102 13.8529 10.3434L15.7095 10.3731C15.617 11.8259 14.9883 13.1306 14.0283 14.0892C13.5361 13.9014 12.9611 13.9261 12.469 14.2177C11.9719 14.5093 11.66 14.9985 11.5772 15.5273C11.0948 15.6607 10.588 15.7348 10.0665 15.7348C9.1699 15.7348 8.31711 15.5223 7.56183 15.1418L8.46818 13.5012ZM14.5108 4.8384C14.1502 5.47093 13.3558 5.68837 12.7321 5.32268C12.1132 4.95701 11.8988 4.15151 12.2545 3.51898C12.6151 2.88644 13.4095 2.66901 14.0332 3.03469C14.657 3.40037 14.8713 4.20587 14.5108 4.8384Z" fill="white"/>
</svg>
