<svg width="20" height="20" viewBox="0 0 20 20" fill="none" xmlns="http://www.w3.org/2000/svg">
<path d="M18.4381 9.36784H10.4481C9.18971 9.36784 10.4482 9.36784 9.8335 9.36784V1.66601C10.1088 1.61921 9.64917 1.71111 10.3252 1.56231L18.3151 0.148708L19.0527 0C19.0527 0 19.0527 0.578935 19.0527 0.763317V9.36784C18.6563 9.36784 18.8068 9.36784 18.4381 9.36784Z" fill="white"/>
<path d="M8.60453 9.36781H0.614609C0.245844 9.36781 0.275264 9.36781 1.22546e-06 9.36781L0 3.30756C0.183808 3.27345 0.183808 3.27346 0.491687 3.22171L8.60453 1.80298C8.54664 1.89488 8.54664 1.89488 8.60453 1.80298C8.60453 1.80298 8.60453 2.42272 8.60453 2.60711V8.7532C8.60453 10.033 8.60453 9.36781 8.60453 9.36781Z" fill="white"/>
<path d="M19.053 19.9999C19.005 19.9977 9.8339 18.3457 9.8339 18.3457C9.83341 18.07 9.8334 18.5295 9.83382 17.7879V11.2116C9.83382 10.1662 9.83378 10.5969 9.83378 10.5969L18.4383 10.597C18.8071 10.597 18.7883 10.597 19.053 10.597V19.2015C19.053 19.3859 19.053 19.9999 19.053 19.9999Z" fill="white"/>
<path d="M8.60453 18.1395C8.35868 18.0781 0.491687 16.7431 0 16.6344V10.5971C0.691287 10.597 0.691287 10.597 0.691287 10.597L8.60453 10.597C8.60453 10.9488 8.60453 10.8429 8.60453 11.2117V17.3577C8.60453 17.5421 8.60453 18.1395 8.60453 18.1395Z" fill="white"/>
</svg>
