<svg width="20" height="20" viewBox="0 0 20 20" fill="none" xmlns="http://www.w3.org/2000/svg">
<path d="M9.99745 0C4.48392 0 0 4.48392 0 9.99745C0 15.5116 4.48392 20 9.99745 20C15.5108 20 20 15.5116 20 9.99745C19.9998 4.48392 15.5108 0 9.99745 0ZM9.99745 0.459067C15.258 0.459067 19.5409 4.73675 19.5409 9.99745C19.5409 15.2585 15.258 19.5409 9.99745 19.5409C4.73675 19.5409 0.459066 15.2585 0.459066 9.99745C0.459066 4.73675 4.73659 0.459067 9.99745 0.459067ZM9.99745 1.41801C7.00066 1.41801 4.36472 2.95549 2.83091 5.28437C3.03216 5.29041 3.22069 5.29449 3.38179 5.29449C4.27903 5.29449 5.67202 5.18738 5.67202 5.18738C6.13443 5.16012 6.18495 5.84169 5.72303 5.89637C5.72303 5.89637 5.26078 5.95089 4.74369 5.97798L7.86534 15.2664L9.74241 9.64032L8.40602 5.97798C7.94409 5.95089 7.50829 5.89637 7.50829 5.89637C7.04604 5.86928 7.10215 5.16012 7.5644 5.18738C7.5644 5.18738 8.98114 5.29449 9.82402 5.29449C10.7211 5.29449 12.1092 5.18738 12.1092 5.18738C12.5719 5.16012 12.6273 5.84169 12.1653 5.89637C12.1653 5.89637 11.6969 5.95089 11.1808 5.97798L14.2821 15.195L15.139 12.3386C15.5098 11.1521 15.7919 10.2982 15.7919 9.56381C15.7919 8.50367 15.4095 7.76852 15.0829 7.19707C14.6481 6.49047 14.2413 5.89397 14.2413 5.18738C14.2413 4.39884 14.8373 3.66736 15.6797 3.66736C15.7177 3.66736 15.7548 3.6703 15.7919 3.67242C14.2657 2.27424 12.2307 1.41801 9.99745 1.41801ZM17.5261 5.88116C17.563 6.1544 17.5822 6.44807 17.5822 6.76358C17.5822 7.63405 17.419 8.61581 16.9294 9.83933L14.3127 17.4139C16.8629 15.9268 18.5769 13.162 18.5769 9.99745C18.5771 8.50607 18.1962 7.10305 17.5261 5.88116ZM2.16271 6.50854C1.68675 7.57537 1.42311 8.75385 1.42311 9.99745C1.42311 13.3928 3.3922 16.3295 6.25351 17.72L2.16271 6.50854ZM10.1505 10.7473L7.5746 18.2249C8.34305 18.4508 9.15538 18.5769 9.99745 18.5769C10.9964 18.5769 11.9571 18.4059 12.8488 18.0923C12.8257 18.0556 12.8047 18.0123 12.7876 17.9699L10.1505 10.7473Z" fill="white"/>
</svg>
