<svg width="20" height="20" viewBox="0 0 20 20" fill="none" xmlns="http://www.w3.org/2000/svg">
<path d="M13.9064 9.93583C14.0007 9.97167 14.0949 10.0017 14.185 10.0425C14.5602 10.2117 14.7812 10.5033 14.8087 10.9125C14.8429 11.4408 14.8454 11.9717 14.8104 12.5C14.7695 13.11 14.2058 13.5767 13.5737 13.5592C12.9608 13.5417 12.4321 13.0425 12.4087 12.4417C12.3945 12.0742 12.4062 11.705 12.4037 11.3367C12.4029 11.1375 12.4012 11.135 12.1994 11.1342C11.0628 11.1333 9.92614 11.1408 8.78951 11.1317C8.04899 11.1258 7.60451 11.5333 7.56281 12.3483C7.54697 12.665 7.47942 12.9542 7.2651 13.1967C6.93404 13.5725 6.51625 13.6975 6.03758 13.585C5.57558 13.4758 5.31457 13.15 5.17447 12.7117C5.0769 12.4058 5.12777 12.0975 5.18448 11.8C5.46884 10.3025 6.32361 9.295 7.79047 8.8375C8.08818 8.74417 8.40007 8.69917 8.71195 8.69917C9.49584 8.7 10.2806 8.7 11.0644 8.69833C11.1712 8.69833 11.2788 8.68833 11.3855 8.68083C11.9709 8.63833 12.3579 8.255 12.4029 7.55417C12.4062 7.50083 12.4029 7.44667 12.4037 7.39333C12.4129 6.73667 12.9082 6.23 13.5654 6.20583C14.2217 6.18167 14.7645 6.645 14.8104 7.30417C14.8738 8.20667 14.5894 9.00917 14.049 9.72667C13.999 9.7925 13.929 9.84667 13.9064 9.93583ZM6.78227 8.69667C6.56711 8.69 6.3061 8.71167 6.04675 8.6675C5.59977 8.5925 5.31624 8.3425 5.19615 7.90417C5.06523 7.42667 5.11526 6.99 5.48886 6.63333C5.86912 6.27167 6.31944 6.16667 6.81229 6.37083C7.24592 6.55083 7.52862 6.98 7.55447 7.44833C7.57532 7.81833 7.55698 8.19 7.56031 8.56C7.56115 8.65667 7.52445 8.69917 7.42605 8.6975C7.22591 8.695 7.0266 8.69667 6.78227 8.69667ZM17.9843 0H1.83629C0.822245 0 0 0.821667 0 1.835V17.9325C0 19.0742 0.926484 20 2.06895 20H17.7525C18.8949 20 19.8214 19.0742 19.8214 17.9325V1.835C19.8206 0.821667 18.9983 0 17.9843 0ZM16.6859 10.3942C17.1187 11.0642 17.2972 11.8025 17.2505 12.6083C17.1604 14.18 16.0721 15.5033 14.5402 15.8717C12.3845 16.3908 10.7325 15.1025 10.1763 13.5433C10.0854 13.29 10.0429 13.025 9.98952 12.7225C9.93281 13.0675 9.89362 13.38 9.76936 13.6675C9.18812 15.015 8.19826 15.8367 6.71305 16C4.95848 16.1933 3.33734 15.1108 2.85034 13.43C2.64186 12.7108 2.7044 11.9742 2.79363 11.2425C2.86034 10.6983 3.06132 10.1858 3.32067 9.7025C3.3682 9.61417 3.3682 9.54917 3.31233 9.465C2.8445 8.76083 2.6627 7.98417 2.72858 7.145C2.76361 6.69583 2.87202 6.26667 3.07633 5.865C3.67258 4.68833 4.98183 3.68917 6.73557 3.855C8.27748 4.00083 9.70599 5.33 9.92948 6.825C9.94032 6.9 9.962 6.97333 9.98618 7.08417C10.0229 6.88333 10.0496 6.71833 10.0846 6.55417C10.3715 5.19583 11.7024 3.775 13.5879 3.75667C15.4992 3.73917 16.9152 5.23667 17.1821 6.62833C17.3238 7.36833 17.2563 8.10833 17.0962 8.8475C17.0028 9.27833 16.8377 9.6875 16.6592 10.0908C16.61 10.2042 16.6175 10.2875 16.6859 10.3942Z" fill="white"/>
</svg>
