<svg width="423" height="343" viewBox="0 0 423 343" fill="none" xmlns="http://www.w3.org/2000/svg">
<g clip-path="url(#clip0_49_18388)">
<path d="M358.3 203.3C310.3 242.7 342.6 310.3 361.6 304C378.5 298.4 337.6 209.7 277.2 216.7C177.7 228.2 149.7 274.2 81.9 256.2C13.6 238.1 0.399998 162.3 66.6 119.1C132.6 76 27.6 2.30002 19.4 26.1C14.7 39.7 66.8 73 104 41.3C141.2 9.60002 190.4 5.60003 221.4 63.2C252.4 120.8 315.4 86.7 355.8 78.8C396.2 70.9 461.5 118.7 358.3 203.3Z" stroke="#467CBB" stroke-width="0.5" stroke-miterlimit="10"/>
<path d="M312.6 173.5C351.481 173.5 383 141.981 383 103.1C383 64.2192 351.481 32.7 312.6 32.7C273.719 32.7 242.2 64.2192 242.2 103.1C242.2 141.981 273.719 173.5 312.6 173.5Z" fill="#06325B"/>
<path d="M300.2 173.5H288.6L289.5 148H299.6L300.2 173.5Z" fill="#FFC8AF"/>
<path d="M293.5 104.7L281.4 146.6L285.5 150.7L281.4 155.7L303.5 158.2L293.5 104.7Z" fill="#8FBEE7"/>
<path d="M300.2 174.4H334.6L346.4 99.6L327.4 98.4L305.9 99.6L293.5 104.7L300.2 174.4Z" fill="#8FBEE7"/>
<path d="M311.7 107.2L327.4 98.4L321.6 79.5L305.1 81.7L311.7 107.2Z" fill="#FFC8AF"/>
<path d="M308.5 96.5L316.1 87L305.1 81.7L308.5 96.5Z" fill="#E2A58D"/>
<path d="M293.8 71.6C293 80.3 295.9 91 304.6 91.7C313.3 92.4 323.8 82.1 324.6 73.4C325.4 64.7 328.6 50.2 316.8 49.2C299.7 47.8 294.6 62.9 293.8 71.6Z" fill="#FFC8AF"/>
<path d="M309.6 63.9C310.1 66 311.5 67.8 313.5 68.8" stroke="#414141" stroke-miterlimit="10"/>
<path d="M296.4 64.4C297.8 64.8 299.3 64.6 300.6 63.9" stroke="#414141" stroke-miterlimit="10"/>
<path d="M299.3 79.5C302.6 79.8 306 79.8 309.4 79.5C309.4 79.5 306.3 83.3 301.8 82.9C300.7 82.8 299.3 79.5 299.3 79.5Z" fill="white"/>
<path d="M309.4 73.5C310.063 73.5 310.6 72.515 310.6 71.3C310.6 70.085 310.063 69.1 309.4 69.1C308.737 69.1 308.2 70.085 308.2 71.3C308.2 72.515 308.737 73.5 309.4 73.5Z" fill="black"/>
<path d="M298.4 72.1C299.063 72.1 299.6 71.115 299.6 69.9C299.6 68.685 299.063 67.7 298.4 67.7C297.737 67.7 297.2 68.685 297.2 69.9C297.2 71.115 297.737 72.1 298.4 72.1Z" fill="black"/>
<path d="M302.3 71.3C301.6 73.6 299.4 75 297 74.7C297 74.7 302.5 81.8 302.3 71.3Z" fill="#E2A58D"/>
<path d="M327.4 77C338.2 64.1 342.3 61.3 327.4 50.9C327.4 50.9 325.9 41.1 313.1 44.2C293.3 49.1 297 50.9 296.3 61.6C296.3 61.6 307 63 315.6 57.9C315.6 57.9 315.9 64 319.4 67L318.8 73.5L327.4 77Z" fill="#0569BD"/>
<path d="M327.4 51C328.2 49.2 328.2 47.2 327.4 45.5" stroke="#0569BD" stroke-miterlimit="10"/>
<path d="M326.5 52.5C326.5 52.5 331.2 50.4 331.6 48.2" stroke="#0569BD" stroke-miterlimit="10"/>
<path d="M329.361 77.6667C330.63 74.3087 329.523 70.7792 326.888 69.7832C324.254 68.7873 321.089 70.702 319.82 74.06C318.55 77.4179 319.657 80.9475 322.292 81.9434C324.926 82.9394 328.091 81.0246 329.361 77.6667Z" fill="#E2A58D"/>
<path d="M346.4 99.6L349.2 155L331.8 164.1L330.4 99.6H346.4Z" fill="#8FBEE7"/>
<path d="M324.1 71.4L329.9 73.2C330.6 73.4 331 74.1 330.8 74.8L326.2 89.6C326 90.3 325.3 90.7 324.6 90.5L318.8 88.7C318.1 88.5 317.7 87.8 317.9 87.1L322.5 72.3C322.7 71.6 323.4 71.2 324.1 71.4Z" fill="#2D819B"/>
<path d="M325.4 71.8L331.5 73.7C332.2 73.9 332.6 74.6 332.4 75.3L327.8 90.1C327.6 90.8 326.9 91.2 326.2 91L320.1 89.1C319.4 88.9 319 88.2 319.2 87.5L323.8 72.7C324 72 324.7 71.6 325.4 71.8Z" fill="#46A6BB"/>
<path d="M326.523 74.562C326.671 74.0875 326.406 73.583 325.932 73.4351C325.457 73.2872 324.953 73.552 324.805 74.0265C324.657 74.5011 324.922 75.0057 325.396 75.1536C325.871 75.3014 326.375 75.0366 326.523 74.562Z" fill="#2D819B"/>
<path d="M345.7 152.6L329 90.2L326.5 91.4C326.5 91.4 324 139.6 335 158.1L345.7 152.6Z" fill="#FFC8AF"/>
<path d="M329 90.2L334 79.3C334 79.3 320.9 82.4 326.5 91.4L329 90.2Z" fill="#FFC8AF"/>
<path d="M333.9 79.3L328.1 74.2C328.1 74.2 326.1 77.6 332.9 80L333.9 79.3Z" fill="#FFC8AF"/>
<path d="M326.4 83.5L329.7 81.3L326.2 77C326.2 77 325 79.2 328.1 81.5L326.4 83.5Z" fill="#FFC8AF"/>
<path d="M332.9 79.9L326.7 75C326.7 75 324.9 78.1 331.9 80.3L332.9 79.9Z" fill="#FFC8AF"/>
<path d="M300.2 174.4L293.5 104.7L304.3 174.4H300.2Z" fill="#3885CA"/>
<path d="M174.5 289.9H118.5V298.1H174.5V289.9Z" fill="#06325B"/>
<path d="M195.9 338.5H188.9L156.1 247H163L195.9 338.5Z" fill="#0669BF"/>
<path d="M139.6 338.5H146.6L154.8 247H147.9L139.6 338.5Z" fill="#06325B"/>
<path d="M98.6 338.5H105.6L138.4 247H131.4L98.6 338.5Z" fill="#0669BF"/>
<path d="M107.4 182.3H165.3C168.3 182.3 170.7 184.7 170.7 187.7V247.8H108.7C106.7 247.8 105.1 246.2 105.1 244.2V184.5C105.2 183.3 106.2 182.3 107.4 182.3Z" fill="#2EB2E7"/>
<path d="M133.7 247.8H188.6C191 247.8 192.9 249.8 192.9 252.2C192.9 254.6 190.9 256.6 188.5 256.6H133.6L133.7 247.8Z" fill="#0669BF"/>
<path d="M109.9 238.5V186C109.9 184 108.2 182.3 106.2 182.3C104.2 182.3 102.5 184 102.5 186V239.1C102.5 248.7 110.3 256.5 119.9 256.5H132.7C135.1 256.5 137.1 254.5 137.1 252.1C137.1 249.7 135.1 247.7 132.7 247.7H119.3C114.1 247.8 109.9 243.6 109.9 238.5Z" fill="#0669BF"/>
<path d="M169.2 247H139.8C128.6 247 119.5 237.9 119.5 226.7C119.5 224.6 119.8 222.5 120.5 220.5L125.4 205.3L168.6 200.1L169.2 247Z" fill="#3885CA"/>
<path d="M173.6 143.3L186 187.6H173.6L160.5 165.4L173.6 143.3Z" fill="#4190D7"/>
<path d="M185.4 185.5L217.2 191.7L216.3 194.3C216.3 194.3 188 201 173.5 187.5L185.4 185.5Z" fill="#FFC8AF"/>
<path d="M217.2 191.7L230.9 190.5L227.1 193.9C224.1 196.6 219.6 196.8 216.3 194.4L217.2 191.7Z" fill="#FFC8AF"/>
<path d="M230.9 190.4L233.4 196C233.4 196 229.8 196.8 229.8 191.4L230.9 190.4Z" fill="#5F281C"/>
<path d="M227.9 191.2L230.2 197.1C230.1 197.1 226 197.5 227.9 191.2Z" fill="#5F281C"/>
<path d="M230.9 190.4L235.5 194.1C235.5 194.1 232.4 195.8 230.5 191.1L230.9 190.4Z" fill="#5F281C"/>
<path d="M224.3 194.4H166.5V198.5H224.3V194.4Z" fill="white"/>
<path d="M173.6 143.3L159.9 137.8H143.7L123 144L132.3 183.4L123.8 204.7H163.9L160.8 182.5L160.9 182.1C161.7 179.9 163.3 178 165.4 177C169 175.2 171.1 172.8 171.4 170.2C171.5 168.9 171.4 167.6 171.2 166.3C170 160 170.4 153.5 172.3 147.4L173.6 143.3Z" fill="#83BDF0"/>
<path d="M166.1 178.1C168.6 176.7 170.4 174.4 171 171.6C171 171.6 166 176 149 174.4C129.3 172.6 141.6 187.1 134.6 204.6H163.9L160.8 182.4L160.9 182C161.6 179.7 164 179.1 166.1 178.1Z" fill="#4190D7"/>
<path d="M157.3 148.6L143.6 137.8L150.9 123.1H163.2L157.3 148.6Z" fill="#FFC8AF"/>
<path d="M160.2 136.1L153.5 127.8L163.2 123.1L160.2 136.1Z" fill="#E2A58D"/>
<path d="M150.2 92.9C152.3 91.3 154.8 90.4 157.5 90.2C161 90.2 170.1 93.9 173.4 102.4C176.7 110.9 178 118.1 174.7 127.7L159.9 123.1L150.2 92.9Z" fill="#06325B"/>
<path d="M173.1 114.2C173.8 121.9 171.3 131.2 163.6 131.9C155.9 132.6 144.5 123.5 143.9 115.8C143.3 108.1 142.6 95.5 152.9 94.5C167.9 93.3 172.4 106.6 173.1 114.2Z" fill="#FFC8AF"/>
<path d="M167 108.1C168.2 107.5 169.7 107.6 170.9 108.5Z" fill="black"/>
<path d="M167 108.1C168.2 107.5 169.7 107.6 170.9 108.5" stroke="black" stroke-miterlimit="10"/>
<path d="M142.9 114.7C142.9 114.7 160.9 114.5 164.9 98.8C164.9 98.8 167.6 99.3 171.4 103.5C171.4 103.5 169.6 94.2 154.6 94.2C139.3 94.2 142.9 114.7 142.9 114.7Z" fill="#06325B"/>
<path d="M164.6 97.6C164.6 97.6 167.6 109.8 148.4 113.9" stroke="#06325B" stroke-miterlimit="10"/>
<path d="M150.2 111.8C150.2 111.8 147.2 121.1 151.7 130C151.7 130 137.1 131.9 127.4 121.1C127.2 111.4 132 101.9 138.1 95.6C143.2 90.3 157.8 88.6 161.5 98.7C161.5 98.8 151.5 98.5 150.2 111.8Z" fill="#06325B"/>
<path d="M176 128.4C176 128.4 182.8 109.3 167.9 96.5" stroke="#06325B" stroke-miterlimit="10"/>
<path d="M125.9 119.8C125.9 119.8 127.4 90.3 152.7 92.4" stroke="#06325B" stroke-miterlimit="10"/>
<path d="M168.3 121.2C165.4 121.4 162.4 121.4 159.5 121.2C159.5 121.2 162.2 124.5 166.2 124.2C167 124.1 168.3 121.2 168.3 121.2Z" fill="white"/>
<path d="M159.4 115.8C160.008 115.8 160.5 114.949 160.5 113.9C160.5 112.851 160.008 112 159.4 112C158.793 112 158.3 112.851 158.3 113.9C158.3 114.949 158.793 115.8 159.4 115.8Z" fill="black"/>
<path d="M169 114.6C169.608 114.6 170.1 113.749 170.1 112.7C170.1 111.651 169.608 110.8 169 110.8C168.393 110.8 167.9 111.651 167.9 112.7C167.9 113.749 168.393 114.6 169 114.6Z" fill="black"/>
<path d="M165.6 113.9C166.2 115.9 168.2 117.2 170.3 116.9C170.3 116.9 165.4 123.2 165.6 113.9Z" fill="#E2A58D"/>
<path d="M148.116 123.327C150.389 122.467 151.33 119.384 150.217 116.439C149.103 113.494 146.358 111.804 144.085 112.663C141.812 113.522 140.872 116.606 141.985 119.551C143.098 122.495 145.843 124.186 148.116 123.327Z" fill="#E2A58D"/>
<path d="M145.6 102.3H143.4V113.9H145.6V102.3Z" fill="#2D819B"/>
<path d="M144.2 102.3H142V113.9H144.2V102.3Z" fill="#46A6BB"/>
<path d="M146.8 104.9V99.3C146.9 96.8 148.2 94.6 150.3 93.3C151.4 92.6 154.4 90.7 154.4 90.7C154.4 90.7 149.1 90.7 146.8 91.6L146.2 91.8C143.7 92.8 142.1 95.1 142.1 97.8V104.9H146.8Z" fill="#2D819B"/>
<path d="M145.4 104.9V99.3C145.4 96.9 146.7 94.7 148.9 93.6L154.5 90.7L152.8 90.6C150.3 90.4 147.8 90.7 145.4 91.6L144.8 91.8C142.3 92.8 140.7 95.1 140.7 97.8V104.9H145.4Z" fill="#46A6BB"/>
<path d="M144 122.7C147.369 122.7 150.1 119.969 150.1 116.6C150.1 113.231 147.369 110.5 144 110.5C140.631 110.5 137.9 113.231 137.9 116.6C137.9 119.969 140.631 122.7 144 122.7Z" fill="#2D819B"/>
<path d="M142.8 122.7C146.169 122.7 148.9 119.969 148.9 116.6C148.9 113.231 146.169 110.5 142.8 110.5C139.431 110.5 136.7 113.231 136.7 116.6C136.7 119.969 139.431 122.7 142.8 122.7Z" fill="#46A6BB"/>
<path d="M142.8 120.5C144.954 120.5 146.7 118.754 146.7 116.6C146.7 114.446 144.954 112.7 142.8 112.7C140.646 112.7 138.9 114.446 138.9 116.6C138.9 118.754 140.646 120.5 142.8 120.5Z" fill="#2D819B"/>
<path d="M142.8 118.4C143.794 118.4 144.6 117.594 144.6 116.6C144.6 115.606 143.794 114.8 142.8 114.8C141.806 114.8 141 115.606 141 116.6C141 117.594 141.806 118.4 142.8 118.4Z" fill="#F1EADF"/>
<path d="M164.7 128.9L150.1 127.2L142.4 116.9L143.2 116.3L150.6 126.2L164.8 127.9L164.7 128.9Z" fill="#F1EADF"/>
<path d="M161.4 126.7H165C165.4 126.7 165.6 127 165.6 127.3V128.7C165.6 129.1 165.3 129.3 165 129.3H161.4C161 129.3 160.8 129 160.8 128.7V127.3C160.8 126.9 161 126.7 161.4 126.7Z" fill="#2D819B"/>
<path d="M133.2 167.7L130.4 175.9L128.8 170.2L133.2 167.7Z" fill="#EFEBDF"/>
<path d="M122.9 143.9L105.2 188.1H119.8L133.2 167.7L122.9 143.9Z" fill="#83BDF0"/>
<path d="M200.8 198.5H188.1C188 195 190.7 192.1 194.2 191.9C197.7 191.8 200.6 194.5 200.8 198C200.8 198.2 200.8 198.3 200.8 198.5Z" fill="#2EB2E7"/>
<path d="M121.9 184.9L183.4 191.7L182.5 194.3C182.5 194.3 134.5 210.7 105.2 188L121.9 184.9Z" fill="#FFC8AF"/>
<path d="M183.4 191.7L197.1 190.5L193.3 193.9C190.3 196.6 185.8 196.8 182.5 194.4L183.4 191.7Z" fill="#FFC8AF"/>
<path d="M197.1 190.4L199.6 196C199.6 196 196 196.8 196 191.4L197.1 190.4Z" fill="#FFC8AF"/>
<path d="M194.1 191.2L196.4 197.1C196.3 197.1 192.1 197.5 194.1 191.2Z" fill="#FFC8AF"/>
<path d="M197.1 190.4L201.7 194.1C201.7 194.1 198.6 195.8 196.7 191.1L197.1 190.4Z" fill="#FFC8AF"/>
<path d="M254.1 180.6H197.8C194.4 180.6 191.7 177.9 191.7 174.5C191.7 174.4 191.7 174.3 191.7 174.2L193.9 137.6C194.1 134.3 196.8 131.8 200 131.8H256.3C259.7 131.8 262.4 134.5 262.4 137.9C262.4 138 262.4 138.1 262.4 138.2L260.2 174.8C260 178 257.3 180.6 254.1 180.6Z" fill="#2D819B"/>
<path d="M257.6 180.6H201.3C197.9 180.6 195.2 177.9 195.2 174.5C195.2 174.4 195.2 174.3 195.2 174.2L197.4 137.6C197.6 134.3 200.3 131.8 203.5 131.8H259.8C263.2 131.8 265.9 134.5 265.9 137.9C265.9 138 265.9 138.1 265.9 138.2L263.7 174.8C263.5 178 260.9 180.6 257.6 180.6Z" fill="#509236"/>
<path d="M238 166.8H220.5L227.9 193.8C228.1 194.5 227.7 195.3 226.9 195.5C226.8 195.5 226.7 195.6 226.5 195.6H209.3V198.7H240.8C243.3 198.7 245.3 196.7 245.3 194.2C245.3 193.8 245.2 193.4 245.1 193L238 166.8ZM236.6 188.9C234.4 188.9 232.6 187.1 232.6 184.9C232.6 182.7 234.4 180.9 236.6 180.9C238.8 180.9 240.6 182.7 240.6 184.9C240.7 187.1 238.9 188.9 236.6 188.9Z" fill="#2D819B"/>
<path d="M234.9 156.2H224.8C222.4 156.2 220.4 158.1 220.4 160.5V166.7H239.2V160.5C239.2 158.1 237.3 156.2 234.9 156.2Z" fill="#46A6BB"/>
<path d="M237.8 156.2H227.7C225.3 156.2 223.3 158.1 223.3 160.5V166.7H242.1V160.5C242.1 158.1 240.2 156.2 237.8 156.2Z" fill="#E3E3E3"/>
<path d="M249.2 192.7L242.1 166.8H223.3L224.4 170.7L231 195C231.4 196.5 230.5 198.1 229 198.5C228.8 198.5 228.6 198.6 228.5 198.6H244.7C247.3 198.6 249.4 196.5 249.4 194C249.4 193.5 249.3 193.1 249.2 192.7ZM238.1 188.9C235.9 188.9 234.1 187.1 234.1 184.9C234.1 182.7 235.9 180.9 238.1 180.9C240.3 180.9 242.1 182.7 242.1 184.9C242.1 187.1 240.3 188.9 238.1 188.9Z" fill="#E3E3E3"/>
<path d="M237.8 156.2H227.7C225.3 156.2 223.3 158.1 223.3 160.5V166.7H242.1V160.5C242.1 158.1 240.2 156.2 237.8 156.2Z" fill="#3D8321"/>
<path d="M249.2 192.7L242.1 166.8H223.3L224.4 170.7L231 195C231.4 196.5 230.5 198.1 229 198.5C228.8 198.5 228.6 198.6 228.5 198.6H244.7C247.3 198.6 249.4 196.5 249.4 194C249.4 193.5 249.3 193.1 249.2 192.7ZM238.1 188.9C235.9 188.9 234.1 187.1 234.1 184.9C234.1 182.7 235.9 180.9 238.1 180.9C240.3 180.9 242.1 182.7 242.1 184.9C242.1 187.1 240.3 188.9 238.1 188.9Z" fill="#3D8321"/>
<path d="M249.2 192.7L242.1 166.8H242V160.6C242 158.2 240.1 156.2 237.7 156.2H227.6" stroke="#F3F5F4" stroke-linecap="round" stroke-linejoin="round"/>
<path d="M242.2 166.8L249.3 192.7C250 195.2 248.5 197.7 246 198.4C245.6 198.5 245.2 198.6 244.8 198.6" stroke="#F3F5F4" stroke-linecap="round" stroke-linejoin="round"/>
<path d="M202.6 164.3C202.4 164.3 202.2 164.1 202.2 163.8L203.4 142.2C203.4 142 203.6 141.8 203.9 141.8C204.1 141.8 204.3 142 204.3 142.3L203.1 163.9C203.1 164.2 202.9 164.3 202.6 164.3Z" fill="#D1CEC7"/>
<path d="M205.5 164.3C205.3 164.3 205.1 164.1 205.1 163.8L206.3 142.2C206.3 142 206.5 141.8 206.7 141.8C206.9 141.8 207.1 142 207.1 142.3L205.9 163.9C206 164.2 205.8 164.3 205.5 164.3Z" fill="#D1CEC7"/>
<path d="M208.4 164.3C208.2 164.3 208 164.1 208 163.8L209.2 142.2C209.2 142 209.4 141.8 209.6 141.8C209.8 141.8 210 142 210 142.3L208.8 163.9C208.8 164.2 208.6 164.3 208.4 164.3Z" fill="#D1CEC7"/>
<path d="M211.3 164.3C211.1 164.3 210.9 164.1 210.9 163.8L212 142.2C212 142 212.2 141.8 212.4 141.8C212.6 141.8 212.8 142 212.8 142.2L211.6 163.8C211.7 164.1 211.5 164.3 211.3 164.3Z" fill="#D1CEC7"/>
<path d="M214.1 164.3C213.9 164.3 213.7 164.1 213.7 163.8L214.9 142.2C214.9 142 215.1 141.8 215.3 141.8C215.5 141.8 215.7 142 215.7 142.2L214.5 163.8C214.6 164.1 214.4 164.3 214.1 164.3C214.2 164.3 214.2 164.3 214.1 164.3Z" fill="#D1CEC7"/>
<path d="M247.6 164.3C247.4 164.3 247.2 164.1 247.2 163.8L248.4 142.2C248.4 142 248.6 141.8 248.8 141.8C249 141.8 249.2 142 249.2 142.2L247.9 163.9C248 164.1 247.8 164.3 247.6 164.3Z" fill="#D1CEC7"/>
<path d="M250.5 164.3C250.3 164.3 250.1 164.1 250.1 163.8L251.3 142.2C251.3 142 251.5 141.8 251.8 141.8C252 141.8 252.2 142 252.2 142.3L251 163.9C250.9 164.2 250.7 164.3 250.5 164.3Z" fill="#D1CEC7"/>
<path d="M253.4 164.3C253.2 164.3 253 164.1 253 163.8L254.2 142.2C254.2 142 254.4 141.8 254.7 141.8C254.9 141.8 255.1 142 255.1 142.3L253.9 163.9C253.8 164.2 253.6 164.3 253.4 164.3Z" fill="#D1CEC7"/>
<path d="M256.3 164.3C256.1 164.3 255.9 164.1 255.9 163.8L257.1 142.2C257.1 142 257.3 141.8 257.5 141.8C257.7 141.8 257.9 142 257.9 142.3L256.7 163.9C256.7 164.1 256.5 164.3 256.3 164.3Z" fill="#D1CEC7"/>
<path d="M259.1 164.3C258.9 164.3 258.7 164.1 258.7 163.8L259.9 142.2C259.9 142 260.1 141.8 260.3 141.8C260.5 141.8 260.7 142 260.7 142.2L259.5 163.8C259.6 164.1 259.4 164.3 259.1 164.3Z" fill="#D1CEC7"/>
<path d="M197 215.6H177.4L167.7 320.8H170.7C193.5 259.7 200.1 232.2 202 221.5C202.5 218.8 200.7 216.2 197.9 215.7C197.6 215.7 197.3 215.6 197 215.6Z" fill="#3885CA"/>
<path d="M168 316.8C168 316.8 189.8 260.6 184.2 222.6C183.8 220.2 177.3 215.6 177.3 215.6L168 316.8Z" fill="#06325B"/>
<path d="M178 215.6H161.3L122 316.8L124.5 320.8C152.8 277.3 178.6 238.7 184 224.2C185.2 220.9 183.5 217.3 180.2 216C179.5 215.8 178.7 215.6 178 215.6Z" fill="#3885CA"/>
<path d="M154.8 233.2C145.2 235.5 135.2 232.2 133.2 226.2C131.9 222.3 133.3 218 136.6 215.6L132.4 204.4L125.1 205.3L120.2 220.5C116.8 231.2 122.7 242.6 133.4 246.1C135.4 246.7 137.5 247.1 139.6 247.1H149L122 316.8C162.6 252.2 154.8 233.2 154.8 233.2Z" fill="#06325B"/>
<path d="M124.7 206.8H168.4L168.6 215.6H121.9L124.7 206.8Z" fill="#06325B"/>
<path d="M170.7 320.8V333.4L178.5 334.2H168.3L167.6 326.5L164 321.8L168 316.8L170.7 320.8Z" fill="#E2A58D"/>
<path d="M178.5 334.2L177.3 338.5H169.2C167.8 338.5 166.7 337.4 166.7 336V327.5L162.6 322.1L168.1 316.8L168.4 334.2H178.5Z" fill="#06325B"/>
<path d="M162.5 322.1V338.5L165.4 324L162.5 322.1Z" fill="#06325B"/>
<path d="M124.7 320.8V333.4L132.5 334.2H122.3L121.6 326.5L118 321.8L122 316.8L124.7 320.8Z" fill="#E2A58D"/>
<path d="M132.5 334.2L131.3 338.5H123.2C121.8 338.5 120.7 337.4 120.7 336V327.5L116.6 322.1L122.1 316.8L122.4 334.2H132.5Z" fill="#06325B"/>
<path d="M116.5 322.1V338.5L119.4 324L116.5 322.1Z" fill="#E8DFCF"/>
<path d="M81.7 206.7H122V331.1C122 335.2 118.7 338.4 114.7 338.4H89C84.9 338.4 81.7 335.1 81.7 331.1V206.7Z" fill="#06325B"/>
<path d="M75.9 206.7H116.2V331.1C116.2 335.2 112.9 338.4 108.9 338.4H83.3C79.2 338.4 76 335.1 76 331.1L75.9 206.7Z" fill="#0669BF"/>
<path d="M237.7 206.7H278V331.1C278 335.2 274.7 338.4 270.7 338.4H245.1C241 338.4 237.8 335.1 237.8 331.1V206.7H237.7Z" fill="#06325B"/>
<path d="M232 206.7H272.3V331.1C272.3 335.2 269 338.4 265 338.4H239.4C235.3 338.4 232.1 335.1 232.1 331.1L232 206.7Z" fill="#0669BF"/>
<path d="M64 198.5H268.3C270.9 198.5 272.9 200.6 272.9 203.1V206.5C272.9 209.1 270.8 211.1 268.3 211.1H64C61.4 211.1 59.3 209 59.3 206.5V203.1C59.3 200.6 61.4 198.5 64 198.5Z" fill="#0669BF"/>
<path d="M156.5 198.5H299.1C301.7 198.5 303.7 200.6 303.7 203.1V206.5C303.7 209.1 301.6 211.1 299.1 211.1H156.5C153.9 211.1 151.9 209 151.9 206.5V203.1C151.8 200.6 153.9 198.5 156.5 198.5Z" fill="#2EB2E7"/>
<path d="M116.2 211.2H75.9V218.6H116.2V211.2Z" fill="#06325B"/>
<path d="M272.3 211.2H232V218.6H272.3V211.2Z" fill="#06325B"/>
<path d="M285.7 76.4L275.4 68.2H210.3C206 68.2 202.4 64.7 202.4 60.4V49.6C202.4 45.3 205.9 41.8 210.3 41.8H277.8C282.1 41.8 285.7 45.3 285.7 49.6V76.4Z" fill="#E06020"/>
<path d="M211.7 48.3H257.3" stroke="#FFB762" stroke-width="0.25" stroke-miterlimit="10"/>
<path d="M211.7 54.3H257.3" stroke="#FFB762" stroke-width="0.25" stroke-miterlimit="10"/>
<path d="M211.7 60.4H257.3" stroke="#FFB762" stroke-width="0.25" stroke-miterlimit="10"/>
<path d="M184.6 113.3L194.9 105H260C264.3 105 267.9 101.5 267.9 97.2V86.4C267.9 82.1 264.4 78.6 260 78.6H192.4C188.1 78.6 184.5 82.1 184.5 86.4V113.3H184.6Z" fill="#E06020"/>
<path d="M258.5 85.1H212.9" stroke="#FFB762" stroke-width="0.25" stroke-miterlimit="10"/>
<path d="M258.5 91.2H212.9" stroke="#FFB762" stroke-width="0.25" stroke-miterlimit="10"/>
<path d="M258.5 97.2H212.9" stroke="#FFB762" stroke-width="0.25" stroke-miterlimit="10"/>
<path d="M346.7 65L347 64.9C351.2 67.4 353.9 67.3 355.3 65.2V65.1C356.5 63.3 355.9 61.1 353.6 59.7C351.5 58.4 349 58.1 346.7 58.9L345.9 54.8C349.3 53.7 353 54.2 355.9 56.2C360.4 59.1 361.9 63.6 359.3 67.6V67.7C356.7 71.8 352.6 71.7 348.6 70L346.6 72.4L344 70.7L346.7 65ZM341.3 72.7L345.6 75.5L342.7 80L338.4 77.2L341.3 72.7Z" fill="#46A6BB"/>
<path d="M68.8001 247.3C63.0001 247.3 58.3 252 58.3 257.8V325.7C58.3 327.2 59.5 328.5 61.1 328.5H76.6C78.1 328.5 79.4001 327.3 79.4001 325.7V257.8C79.4001 252 74.7001 247.3 68.8001 247.3Z" fill="#509236"/>
<path d="M78.1 288.9H71.2C68.3 288.9 66 286.6 66 283.7C66 280.8 68.3 278.5 71.2 278.5H78.1C82 278.5 85.1 275.4 85.1 271.5V264.2C85.1 261.3 87.4 259 90.3 259C93.2 259 95.5 261.3 95.5 264.2V271.5C95.5 281.1 87.7 288.9 78.1 288.9Z" fill="#3D8321"/>
<path d="M67.2 302.5H59.9C50.3 302.5 42.6 294.7 42.6 285.2V278.3C42.6 275.4 44.9 273.1 47.8 273.1C50.7 273.1 53 275.4 53 278.3V285.2C53 289.1 56.1 292.2 60 292.2H67.3C70.2 292.2 72.5 294.5 72.5 297.4C72.4 300.2 70 302.5 67.2 302.5Z" fill="#3D8321"/>
<path d="M63.8 259.1H62.9V262.7H63.8V259.1Z" fill="#F3F5F4"/>
<path d="M74.8 253.7H73.9V257.3H74.8V253.7Z" fill="#F3F5F4"/>
<path d="M68.6 274.6H67.7V278.2H68.6V274.6Z" fill="#F3F5F4"/>
<path d="M71.7 263.7H70.8V267.3H71.7V263.7Z" fill="#F3F5F4"/>
<path d="M76.4 294.6H75.5V298.2H76.4V294.6Z" fill="#F3F5F4"/>
<path d="M88.2 262.5H87.3V266.1H88.2V262.5Z" fill="#F3F5F4"/>
<path d="M63.8 286.1H62.9V289.7H63.8V286.1Z" fill="#F3F5F4"/>
<path d="M64.7 301.5H63.8V305.1H64.7V301.5Z" fill="#F3F5F4"/>
<path d="M72.8 285.3H71.9V288.9H72.8V285.3Z" fill="#F3F5F4"/>
<path d="M46.5 286H45.6V289.6H46.5V286Z" fill="#F3F5F4"/>
<path d="M50.7001 279.3H49.8V282.9H50.7001V279.3Z" fill="#F3F5F4"/>
<path d="M52.5999 289.6H51.7V293.2H52.5999V289.6Z" fill="#F3F5F4"/>
<path d="M77.2 271.5H76.3V275.1H77.2V271.5Z" fill="#F3F5F4"/>
<path d="M90 276.4H89.1V280H90V276.4Z" fill="#F3F5F4"/>
<path d="M86.7 308.5H51.4001C50.5001 308.5 49.8 309.2 49.8 310.1C49.8 310.2 49.8 310.2 49.8 310.3L53.5 337.6C53.9 340.4 56.3 342.5 59.1 342.5H79.6C82.5 342.5 84.9 340.3 85.2 337.5L88.2 310.3C88.3 309.4 87.7001 308.7 86.8001 308.6C86.8001 308.5 86.7 308.5 86.7 308.5Z" fill="#529ADA"/>
<path d="M86.6 325L87.2 319.4H51.1L51.8 325H86.6Z" fill="#0569BD"/>
<path d="M51.8 176.4C56.6049 176.4 60.5 172.505 60.5 167.7C60.5 162.895 56.6049 159 51.8 159C46.9951 159 43.1 162.895 43.1 167.7C43.1 172.505 46.9951 176.4 51.8 176.4Z" stroke="#8FBEE7" stroke-width="0.5" stroke-miterlimit="10"/>
<path d="M324.5 196.8C329.305 196.8 333.2 192.905 333.2 188.1C333.2 183.295 329.305 179.4 324.5 179.4C319.695 179.4 315.8 183.295 315.8 188.1C315.8 192.905 319.695 196.8 324.5 196.8Z" stroke="#4F81AC" stroke-width="0.5" stroke-miterlimit="10"/>
<path d="M314.5 248C316.93 248 318.9 246.03 318.9 243.6C318.9 241.17 316.93 239.2 314.5 239.2C312.07 239.2 310.1 241.17 310.1 243.6C310.1 246.03 312.07 248 314.5 248Z" stroke="#8FBEE7" stroke-width="0.5" stroke-miterlimit="10"/>
<path d="M374.4 107.2L371 121L360.6 110.5L374.4 107.2Z" stroke="#46A6BB" stroke-width="0.5" stroke-miterlimit="10"/>
<path d="M141 68.1L128.9 75.6V60.7L141 68.1Z" stroke="#8FBEE7" stroke-width="0.5" stroke-miterlimit="10"/>
<path d="M375.3 239.2L363.1 246.6V231.8L375.3 239.2Z" stroke="#8FBEE7" stroke-width="0.5" stroke-miterlimit="10"/>
<path d="M330.9 188H388.6C392.1 188 395 190.9 395 194.4V205.8C395 209.3 392.1 212.2 388.6 212.2H330.9C327.4 212.2 324.5 209.3 324.5 205.8V194.4C324.5 190.8 327.3 188 330.9 188Z" fill="#E06020"/>
<path d="M382.5 194H337" stroke="#FFB762" stroke-width="0.25" stroke-miterlimit="10"/>
<path d="M382.5 200.1H337" stroke="#FFB762" stroke-width="0.25" stroke-miterlimit="10"/>
<path d="M382.5 206.1H337" stroke="#FFB762" stroke-width="0.25" stroke-miterlimit="10"/>
<path d="M45.9 110.4H103.6C107.1 110.4 110 113.3 110 116.8V128.2C110 131.7 107.1 134.6 103.6 134.6H45.9C42.4 134.6 39.5 131.7 39.5 128.2V116.8C39.5 113.2 42.3 110.4 45.9 110.4Z" fill="#E06020"/>
<path d="M97.5 116.4H51.9" stroke="#FFB762" stroke-width="0.25" stroke-miterlimit="10"/>
<path d="M97.5 122.5H51.9" stroke="#FFB762" stroke-width="0.25" stroke-miterlimit="10"/>
<path d="M97.5 128.5H51.9" stroke="#FFB762" stroke-width="0.25" stroke-miterlimit="10"/>
</g>
<defs>
<clipPath id="clip0_49_18388">
<rect width="422.2" height="342.5" fill="white"/>
</clipPath>
</defs>
</svg>
