<svg width="81" height="46" viewBox="0 0 81 46" fill="none" xmlns="http://www.w3.org/2000/svg">
<path d="M18.2291 26.2855H15.7092V19.7145H18.2291C18.926 19.7145 19.527 19.846 20.0318 20.1091C20.5367 20.37 20.9254 20.7465 21.1979 21.2385C21.4727 21.7284 21.6101 22.3144 21.6101 22.9967C21.6101 23.6813 21.4727 24.2694 21.1979 24.7615C20.9254 25.2534 20.5367 25.631 20.0318 25.8941C19.527 26.155 18.926 26.2855 18.2291 26.2855ZM17.331 24.9605H18.1654C18.5586 24.9605 18.8903 24.8962 19.1606 24.7678C19.4332 24.6373 19.6387 24.4289 19.7772 24.1423C19.9179 23.8557 19.9883 23.4737 19.9883 22.9967C19.9883 22.5219 19.9179 22.1411 19.7772 21.8545C19.6364 21.5679 19.4287 21.3605 19.1539 21.2321C18.8814 21.1038 18.5452 21.0397 18.1453 21.0397H17.331V24.9605ZM23.9689 19.7145H25.7783L27.2527 22.4771H27.313L28.7874 19.7145H30.5969L28.087 24.0686V26.2855H26.4786V24.0686L23.9689 19.7145ZM34.2156 26.2855H32.4731L34.7986 19.7145H36.9465L39.2719 26.2855H37.5295L35.8977 21.3412H35.8441L34.2156 26.2855ZM34.0045 23.6994H37.7204V24.8865H34.0045V23.6994ZM42.198 26.2855V19.7145H43.8196V25.0214H46.6915V26.2855H42.198ZM55.5609 19.7145V26.2855H54.1837L51.4093 22.429H51.3623V26.2855H49.7404V19.7145H51.1411L53.8887 23.5615H53.9458V19.7145H55.5609ZM60.2344 26.2855H58.4918L60.8174 19.7145H62.9653L65.2908 26.2855H63.5482L61.9164 21.3412H61.8629L60.2344 26.2855ZM60.0233 23.6994H63.7393V24.8865H60.0233V23.6994Z" fill="white"/>
<path d="M43.7211 27.9331H46.2854L34.7289 45.9987L38.2856 27.8664L40.7684 27.9331L39.4934 34.466L43.7211 27.9331Z" fill="white"/>
<path d="M46.1368 0.201316L42.5802 17.8669L40.0973 18.0003L41.2381 11.6673L37.2118 17.8669H34.5947L46.1368 0.00132751V0.201316Z" fill="white"/>
</svg>
