<svg width="81" height="46" viewBox="0 0 81 46" fill="none" xmlns="http://www.w3.org/2000/svg">
<g clip-path="url(#clip0_33_18382)">
<path d="M17.3952 34.683V39.9751H-6.10352e-05V7.33276H16.4892V12.4375H5.66247V20.0712H14.2695V25.0355H5.66247V34.683H17.3952Z" fill="white"/>
<path d="M81 6.77076V39.9751H75.3826V25.9721L75.5869 20.4458L73.9784 22.9748L67.7724 30.5149L61.5662 22.9748L59.9581 20.4458L60.2073 25.9721V39.9751H54.59V6.77076H55.0431L67.8177 22.3426L80.5019 6.77076H81Z" fill="white"/>
<path fill-rule="evenodd" clip-rule="evenodd" d="M40.3941 4.24835L45.0959 7.81743L35.4093 20.5784H47.7804L31.8202 41.7516L27.1064 38.1984L35.9387 26.4814H23.5173L40.3941 4.24835Z" fill="white"/>
</g>
<defs>
<clipPath id="clip0_33_18382">
<rect width="81" height="46" fill="white"/>
</clipPath>
</defs>
</svg>
