<svg width="81" height="46" viewBox="0 0 81 46" fill="none" xmlns="http://www.w3.org/2000/svg">
<path fill-rule="evenodd" clip-rule="evenodd" d="M62.8523 17.9879L68.9523 21.5311L64.8462 28.424L74.8746 45.2517H66.7809L60.9374 35.7235H60.3847L54.9758 45.2517H47.0004V44.9999L56.4168 28.5788L50.6129 18.8978H36.3797V31.4831H43.7628V38.8408H36.0837V45.2517H28.9769V38.8408H22.265C21.5016 40.551 19.1261 44.1537 15.7307 44.8818C11.4864 45.7917 8.36732 45.4044 5.22852 43.3521L8.56473 36.7884C10.6573 38.1437 13.8632 39.0044 15.1977 36.7884C15.5005 35.9429 15.944 33.9421 15.2963 32.703C14.6489 31.4638 12.3024 26.4555 11.21 24.1063C9.2697 19.9333 10.3303 11.9662 15.2963 11.9662H28.1675V18.6462H17.4105C17.4105 18.6462 16.8227 18.6462 17.7838 20.7953C17.9295 21.1213 18.1638 21.6512 18.456 22.3119C19.5634 24.8164 21.502 29.2005 22.6006 31.4831H28.9769V11.9662H54.9164L60.4637 21.5311L62.8523 17.9879ZM25.076 33.7347L24.4518 36.8535H25.1295L25.5028 34.9809L26.1462 36.5239H26.4673L27.6601 35.0004L27.2923 36.8535H27.9701L28.5899 33.7347H27.9701L26.4452 35.6785L25.6646 33.7347H25.076ZM29.5134 36.7377C29.7423 36.8506 30.0143 36.907 30.3295 36.907C30.6178 36.907 30.8794 36.8595 31.1143 36.7645C31.3521 36.6694 31.5558 36.5387 31.7252 36.3723C31.8976 36.203 32.0299 36.0056 32.122 35.7798C32.2142 35.551 32.2603 35.303 32.2603 35.0357C32.2603 34.7683 32.1994 34.5337 32.0775 34.3317C31.9555 34.1267 31.7802 33.9679 31.5512 33.8549C31.3253 33.7391 31.0548 33.6812 30.7397 33.6812C30.4513 33.6812 30.1882 33.7288 29.9503 33.8237C29.7156 33.9188 29.5119 34.051 29.3395 34.2203C29.17 34.3867 29.0392 34.5842 28.947 34.8129C28.8549 35.0386 28.8088 35.2852 28.8088 35.5525C28.8088 35.8199 28.8698 36.056 28.9916 36.261C29.1135 36.463 29.2874 36.6219 29.5134 36.7377ZM30.8645 36.1986C30.7248 36.261 30.5673 36.2922 30.3918 36.2922C30.2105 36.2922 30.056 36.2595 29.9281 36.1941C29.8032 36.1288 29.7066 36.0382 29.6382 35.9223C29.5728 35.8036 29.5401 35.6669 29.5401 35.5124C29.5401 35.349 29.5654 35.1946 29.616 35.049C29.6694 34.9005 29.7452 34.7698 29.8433 34.657C29.9444 34.5441 30.0649 34.4565 30.2046 34.3941C30.3443 34.3287 30.5019 34.296 30.6773 34.296C30.8615 34.296 31.0162 34.3287 31.141 34.3941C31.2688 34.4594 31.3655 34.5515 31.4309 34.6703C31.4963 34.7862 31.529 34.9214 31.529 35.0758C31.529 35.2392 31.5022 35.3951 31.4487 35.5436C31.3982 35.6892 31.3239 35.8184 31.2257 35.9312C31.1276 36.0442 31.0073 36.1332 30.8645 36.1986ZM32.5871 33.7347L33.3096 36.8535H34.023L35.9985 33.7347H35.2493L33.8372 35.9585L33.3318 33.7347H32.5871ZM36.2591 33.7347L35.6348 36.8535H36.3617L36.986 33.7347H36.2591ZM38.0764 35.5525L37.9319 36.2743H39.6354L39.5149 36.8535H37.098L37.7223 33.7347H40.0813L39.9608 34.3139H38.3243L38.1888 34.9912H39.6398L39.5283 35.5525H38.0764ZM40.6828 36.858C40.8434 36.8907 41.0083 36.907 41.1778 36.907C41.4691 36.907 41.7218 36.864 41.9359 36.7778C42.1529 36.6887 42.3209 36.5654 42.4398 36.408C42.5587 36.2476 42.6182 36.0605 42.6182 35.8466C42.6182 35.71 42.5899 35.5971 42.5334 35.508C42.477 35.4159 42.4026 35.3402 42.3105 35.2807C42.2183 35.2213 42.1172 35.1723 42.0073 35.1337C41.8973 35.0951 41.7872 35.061 41.6772 35.0312C41.5673 35.0015 41.4662 34.9718 41.374 34.9421C41.2818 34.9094 41.2075 34.8708 41.1511 34.8263C41.0975 34.7787 41.0708 34.7179 41.0708 34.6436C41.0708 34.5693 41.0961 34.504 41.1466 34.4476C41.2001 34.3881 41.2759 34.3421 41.374 34.3095C41.4751 34.2768 41.5955 34.2604 41.7352 34.2604C41.8898 34.2604 42.04 34.2812 42.1856 34.3228C42.3313 34.3614 42.4636 34.4208 42.5825 34.501L42.8545 33.9485C42.7207 33.8624 42.5602 33.7971 42.3729 33.7525C42.1856 33.705 41.9864 33.6812 41.7754 33.6812C41.4869 33.6812 41.2358 33.7258 41.0217 33.8149C40.8077 33.901 40.6412 34.0228 40.5223 34.1802C40.4064 34.3377 40.3484 34.5233 40.3484 34.7371C40.3484 34.8797 40.3766 34.9986 40.4331 35.0936C40.4896 35.1887 40.5624 35.2674 40.6516 35.3298C40.7438 35.3891 40.8449 35.4397 40.9549 35.4812C41.0678 35.5198 41.1793 35.554 41.2893 35.5837C41.3993 35.6134 41.4989 35.6446 41.588 35.6773C41.6802 35.707 41.7545 35.7441 41.811 35.7887C41.8675 35.8332 41.8957 35.8911 41.8957 35.9624C41.8957 36.0397 41.869 36.105 41.8155 36.1585C41.765 36.212 41.6906 36.2536 41.5926 36.2833C41.4974 36.313 41.3829 36.3278 41.2491 36.3278C41.1273 36.3278 41.0054 36.316 40.8835 36.2922C40.7616 36.2654 40.6442 36.2283 40.5312 36.1808C40.4212 36.1303 40.3172 36.0708 40.219 36.0025L39.9248 36.5595C40.0139 36.6219 40.1224 36.6798 40.2503 36.7333C40.3811 36.7867 40.5252 36.8283 40.6828 36.858Z" fill="white"/>
<path d="M66.415 16.0442C66.2255 15.5641 66.1913 14.7985 66.1979 14.4759C64.3027 14.8786 63.9211 17.3545 63.9672 18.5419C63.7697 18.2708 62.9604 16.141 63.3157 13.5466C63.6 11.4709 65.4477 10.2937 66.3361 9.96456C70.0158 9.03517 71.8833 7.52494 72.3965 6.03406C74.3311 10.0033 72.4755 12.7333 71.0541 14.108C71.8754 14.5727 72.8966 13.5143 73.3046 12.9269C73.5678 14.0435 73.7666 16.6406 72.4558 18.0966C71.145 19.5526 68.2904 20.2652 67.027 20.4394C68.0733 19.9747 69.9684 18.4064 69.6723 16.567C69.2925 14.2082 69.7841 12.8947 70.0277 12.5397C68.1167 12.7411 66.823 14.96 66.415 16.0442Z" fill="white"/>
</svg>
