<svg width="81" height="46" viewBox="0 0 81 46" fill="none" xmlns="http://www.w3.org/2000/svg">
<g clip-path="url(#clip0_33_18382)">
<path d="M1.34094 1.95147C1.34094 1.97685 1.4805 2.30672 1.64544 2.67465C2.06412 3.62619 2.68579 5.63079 2.99029 6.96295C3.30747 8.38393 3.8784 11.8095 4.06871 13.3827C4.19558 14.4231 4.20827 14.4611 4.43664 16.047C4.53814 16.8083 4.69039 18.0136 4.76651 18.7114C5.24863 23.19 5.81955 26.5141 6.61885 29.6859C6.93604 30.9039 7.21516 31.995 7.24053 32.0965C7.30397 32.3756 7.91296 33.9869 8.14133 34.507C9.82874 38.2879 12.1124 40.9268 15.0178 42.4366C15.8425 42.868 15.9948 42.7918 15.297 42.3097C14.3835 41.6754 12.8229 39.8991 11.9475 38.5035C9.25781 34.2279 7.55771 28.8993 6.85991 22.6064C6.82185 22.2765 6.75841 21.8705 6.73304 21.6929C6.69498 21.5153 6.55542 20.2085 6.41586 18.7748C5.92105 13.8268 5.43894 10.9848 4.58889 8.09212C4.13215 6.55696 3.78959 5.63078 3.35822 4.78074C2.93954 3.95606 1.582 1.90072 1.45513 1.90072C1.39169 1.90072 1.34094 1.9261 1.34094 1.95147Z" fill="white"/>
<path d="M3.37091 2.86495C3.37091 2.90301 3.49778 3.1187 3.66272 3.33438C4.04334 3.89262 4.41127 4.69192 4.80457 5.89721C5.12176 6.87413 5.95912 10.0079 6.08599 10.6549C6.11136 10.8326 6.26361 11.5177 6.41586 12.1774C6.75842 13.6745 7.36741 16.9605 7.55771 18.3942C7.86221 20.551 8.05252 21.6548 8.3697 22.9616C8.75032 24.611 9.81605 27.9097 9.95561 27.9097C10.1713 27.9097 10.2094 26.9074 10.0952 24.3699C9.63843 14.6641 9.02944 11.0482 7.30397 7.60999C6.72035 6.46814 5.46431 4.53967 4.8807 3.93068C4.09409 3.10601 3.37091 2.59852 3.37091 2.86495Z" fill="white"/>
<path d="M27.058 4.78074C27.2864 5.6181 27.1087 9.01829 26.6647 12.114C26.5378 13.0021 26.5378 13.9029 26.652 13.9536C26.8677 14.0298 27.5782 12.4058 27.9334 11.0736C28.6058 8.46005 28.4409 6.1129 27.5147 4.84417C27.1341 4.33668 26.9311 4.31131 27.058 4.78074Z" fill="white"/>
<path d="M28.8724 4.95836C28.8724 5.07255 28.9358 5.47854 29.0119 5.84647C29.2149 6.9122 29.253 9.62728 29.0627 11.1371C28.5932 14.9306 27.5783 17.9628 25.3072 22.3907C24.5079 23.9639 21.9959 28.4045 21.6406 28.8612C21.5264 29.0135 20.9936 30.0031 19.9913 31.9062C18.5195 34.6847 17.3523 37.7169 17.0098 39.6835C16.7941 40.9014 16.756 42.8807 16.9336 42.8807C16.9971 42.8807 17.1493 42.5508 17.2635 42.1575C17.6314 40.8761 18.583 38.6938 19.7629 36.4101C20.3973 35.1922 20.9555 34.1264 21.0062 34.063C21.057 33.9869 21.3234 33.5048 21.6025 32.9846C22.0466 32.1726 23.8101 28.9373 25.6244 25.6259C27.7051 21.8451 29.659 17.0493 29.9635 14.9686C30.0015 14.7276 30.0777 14.182 30.1538 13.7633C30.3695 12.317 30.2807 9.33547 29.9508 7.74956C29.862 7.28013 29.1388 5.16136 28.9992 4.94567C28.8977 4.78074 28.8724 4.78074 28.8724 4.95836Z" fill="white"/>
<path d="M24.1653 19.5107C24.0638 19.6502 23.5817 20.2846 23.0869 20.9443C22.2495 22.0481 19.9785 25.3595 19.6613 25.9431C19.5852 26.0827 19.2426 26.679 18.8874 27.2753C17.9485 28.8739 17.0224 30.6501 16.6417 31.589C16.4514 32.0457 16.2484 32.5278 16.185 32.6674C15.9947 33.0988 15.7663 33.8981 15.5633 34.8877C15.3984 35.6489 15.373 36.2706 15.4364 37.9326C15.4745 39.0872 15.4872 40.0514 15.4618 40.0894C15.3603 40.2163 14.9036 39.4805 14.0282 37.793C13.5334 36.8415 12.9751 35.8138 12.7721 35.5093C12.5818 35.2048 12.2266 34.6339 11.9855 34.2533C11.5541 33.5682 11.5541 33.5555 11.5161 33.9361C11.4653 34.4309 12.2266 36.6385 12.9624 38.1356C13.4065 39.0491 13.7617 39.5439 14.5864 40.4066C15.2081 41.0664 15.7156 41.4977 15.8171 41.4597C15.9313 41.4216 16.0328 41.1044 16.0835 40.5589C16.2357 39.1887 17.2888 36.2071 19.0143 32.1853C19.4076 31.2972 19.7882 30.3837 19.8897 30.168C19.9785 29.9396 20.689 28.4679 21.4629 26.8947C22.6936 24.408 24.2541 20.8809 24.4698 20.107C24.5079 19.9674 24.5713 19.7264 24.622 19.5614C24.7235 19.2062 24.419 19.1808 24.1653 19.5107Z" fill="white"/>
<path d="M8.27356 6.7835C8.27356 6.80887 8.46387 7.43055 8.70493 8.15373C9.61841 10.8815 10.3162 14.3071 11.0013 19.42C11.1536 20.638 11.4327 22.503 11.7626 24.5584C11.7879 24.7614 11.9402 25.5987 12.0797 26.398C12.232 27.1973 12.3716 28.022 12.4096 28.2377C12.4857 28.8467 13.5388 32.9447 13.9194 34.1754C14.1224 34.8224 14.3254 35.2665 14.4142 35.2411C14.4903 35.2157 14.6172 34.9747 14.6933 34.6955C14.7821 34.4291 14.9978 33.6425 15.1881 32.9574C15.518 31.7901 16.4315 29.7856 17.4718 27.9205C17.9666 27.0451 19.3242 24.5457 20.1742 22.9725C22.1915 19.2044 22.7244 18.1894 23.3207 16.9968C23.6886 16.2482 24.2342 15.0937 24.526 14.4086C25.1223 12.9876 26.3276 9.52395 26.2388 9.43514C26.0358 9.21946 21.849 15.6012 20.7071 17.8976C20.4787 18.3543 19.6414 19.9275 18.8548 21.3993C18.0555 22.871 16.9897 25.0151 16.4695 26.157C15.2135 28.9736 16.239 26.6307 15.0219 29.4643C14.4143 27.5949 14.4396 27.6921 14.059 25.7637C13.8813 24.8883 13.6276 23.4038 13.4753 22.465C13.3231 21.5261 13.0694 20.0417 12.9044 19.1663C12.7268 18.2909 12.5619 17.4408 12.5365 17.2632C12.0417 14.675 10.8237 10.5516 10.1132 9.0799C9.66916 8.16641 8.6288 6.73275 8.40043 6.73275C8.32431 6.73275 8.27356 6.75813 8.27356 6.7835Z" fill="white"/>
<path d="M27.9318 32.8771C28.5841 32.8771 29.1795 32.9785 29.7178 33.1811C30.2625 33.3838 30.728 33.6783 31.1143 34.0646C31.507 34.451 31.811 34.926 32.0263 35.4896C32.248 36.047 32.3588 36.6803 32.3588 37.3896C32.3588 37.6113 32.3493 37.7918 32.3303 37.9311C32.3113 38.0705 32.2765 38.1813 32.2258 38.2636C32.1751 38.346 32.1055 38.403 32.0168 38.4346C31.9345 38.4663 31.8268 38.4821 31.6938 38.4821H26.0128C26.1078 39.3055 26.358 39.904 26.7633 40.2776C27.1686 40.645 27.6911 40.8286 28.3308 40.8286C28.6728 40.8286 28.9673 40.7875 29.2143 40.7051C29.4613 40.6228 29.6798 40.531 29.8698 40.4296C30.0661 40.3283 30.2435 40.2365 30.4018 40.1541C30.5665 40.0718 30.7375 40.0306 30.9148 40.0306C31.1491 40.0306 31.3265 40.1161 31.4468 40.2871L32.3018 41.3416C31.9978 41.69 31.6685 41.975 31.3138 42.1966C30.9655 42.412 30.6045 42.583 30.2308 42.7096C29.8635 42.83 29.493 42.9123 29.1193 42.9566C28.752 43.0073 28.4005 43.0326 28.0648 43.0326C27.3745 43.0326 26.7253 42.9218 26.1173 42.7001C25.5156 42.4721 24.9868 42.1365 24.5308 41.6931C24.0811 41.2498 23.7233 40.6988 23.4573 40.0401C23.1976 39.3815 23.0678 38.6151 23.0678 37.7411C23.0678 37.0825 23.1786 36.4586 23.4003 35.8696C23.6283 35.2806 23.9513 34.7645 24.3693 34.3211C24.7936 33.8778 25.3035 33.5263 25.8988 33.2666C26.5005 33.007 27.1781 32.8771 27.9318 32.8771ZM27.9888 34.9101C27.4251 34.9101 26.985 35.0716 26.6683 35.3946C26.3516 35.7113 26.1426 36.1705 26.0413 36.7721H29.7178C29.7178 36.5378 29.6861 36.3098 29.6228 36.0881C29.5658 35.8665 29.4676 35.6701 29.3283 35.4991C29.1953 35.3218 29.018 35.1793 28.7963 35.0716C28.5746 34.964 28.3055 34.9101 27.9888 34.9101ZM35.8296 37.7886L32.6566 33.0291H35.4876C35.6966 33.0291 35.8486 33.0576 35.9436 33.1146C36.0449 33.1653 36.1336 33.254 36.2096 33.3806L37.9671 36.2971C38.0051 36.1831 38.0526 36.0723 38.1096 35.9646C38.1666 35.857 38.2299 35.743 38.2996 35.6226L39.5536 33.4281C39.6359 33.2825 39.7277 33.1811 39.8291 33.1241C39.9304 33.0608 40.0539 33.0291 40.1996 33.0291H42.8976L39.7246 37.6556L43.0306 42.8806H40.1996C39.9906 42.8806 39.8227 42.83 39.6961 42.7286C39.5694 42.6273 39.4649 42.507 39.3826 42.3676L37.6251 39.3466C37.5934 39.4543 37.5554 39.5556 37.5111 39.6506C37.4667 39.7456 37.4192 39.8343 37.3686 39.9166L35.9246 42.3676C35.8486 42.5006 35.7472 42.621 35.6206 42.7286C35.4939 42.83 35.3356 42.8806 35.1456 42.8806H32.5236L35.8296 37.7886ZM47.4052 33.0291V42.8806H44.4602V33.0291H47.4052ZM47.7472 30.3311C47.7472 30.5655 47.6997 30.7871 47.6047 30.9961C47.5097 31.1988 47.3798 31.3793 47.2152 31.5376C47.0505 31.6896 46.8573 31.8131 46.6357 31.9081C46.4203 31.9968 46.1892 32.0411 45.9422 32.0411C45.7015 32.0411 45.4767 31.9968 45.2677 31.9081C45.0587 31.8131 44.8718 31.6896 44.7072 31.5376C44.5488 31.3793 44.4222 31.1988 44.3272 30.9961C44.2385 30.7871 44.1942 30.5655 44.1942 30.3311C44.1942 30.0905 44.2385 29.8656 44.3272 29.6566C44.4222 29.4476 44.5488 29.264 44.7072 29.1056C44.8718 28.9473 45.0587 28.8238 45.2677 28.7351C45.4767 28.6465 45.7015 28.6021 45.9422 28.6021C46.1892 28.6021 46.4203 28.6465 46.6357 28.7351C46.8573 28.8238 47.0505 28.9473 47.2152 29.1056C47.3798 29.264 47.5097 29.4476 47.6047 29.6566C47.6997 29.8656 47.7472 30.0905 47.7472 30.3311ZM55.8061 35.1856C55.7301 35.306 55.6478 35.3915 55.5591 35.4421C55.4768 35.4928 55.3691 35.5181 55.2361 35.5181C55.0968 35.5181 54.9575 35.4896 54.8181 35.4326C54.6788 35.3693 54.5268 35.3028 54.3621 35.2331C54.2038 35.1635 54.0233 35.1001 53.8206 35.0431C53.618 34.9798 53.3868 34.9481 53.1271 34.9481C52.7535 34.9481 52.4653 35.021 52.2626 35.1666C52.0663 35.306 51.9681 35.5023 51.9681 35.7556C51.9681 35.9393 52.0315 36.0913 52.1581 36.2116C52.2911 36.332 52.4653 36.4396 52.6806 36.5346C52.896 36.6233 53.1398 36.7088 53.4121 36.7911C53.6845 36.8735 53.9631 36.9653 54.2481 37.0666C54.5331 37.168 54.8118 37.2883 55.0841 37.4276C55.3565 37.5606 55.6003 37.7285 55.8156 37.9311C56.031 38.1275 56.202 38.3681 56.3286 38.6531C56.4616 38.9381 56.5281 39.2801 56.5281 39.6791C56.5281 40.1668 56.4395 40.6165 56.2621 41.0281C56.0848 41.4398 55.8188 41.7945 55.4641 42.0921C55.1158 42.3898 54.682 42.621 54.1626 42.7856C53.6496 42.9503 53.0575 43.0326 52.3861 43.0326C52.0505 43.0326 51.7148 43.001 51.3791 42.9376C51.0435 42.8743 50.7173 42.7888 50.4006 42.6811C50.0903 42.5735 49.8021 42.4468 49.5361 42.3011C49.2701 42.1491 49.0421 41.9876 48.8521 41.8166L49.5361 40.7336C49.6185 40.607 49.7166 40.5088 49.8306 40.4391C49.9446 40.3631 50.0935 40.3251 50.2771 40.3251C50.4481 40.3251 50.6001 40.3631 50.7331 40.4391C50.8725 40.5151 51.0213 40.5975 51.1796 40.6861C51.338 40.7748 51.5216 40.8571 51.7306 40.9331C51.946 41.0091 52.2151 41.0471 52.5381 41.0471C52.7661 41.0471 52.9593 41.025 53.1176 40.9806C53.276 40.93 53.4026 40.8635 53.4976 40.7811C53.5926 40.6988 53.6623 40.607 53.7066 40.5056C53.751 40.4043 53.7731 40.2998 53.7731 40.1921C53.7731 39.9958 53.7066 39.8343 53.5736 39.7076C53.4406 39.581 53.2665 39.4733 53.0511 39.3846C52.8358 39.2896 52.5888 39.2041 52.3101 39.1281C52.0378 39.0458 51.7591 38.954 51.4741 38.8526C51.1891 38.7513 50.9073 38.631 50.6286 38.4916C50.3563 38.346 50.1125 38.1655 49.8971 37.9501C49.6818 37.7285 49.5076 37.4593 49.3746 37.1426C49.2416 36.826 49.1751 36.4428 49.1751 35.9931C49.1751 35.5751 49.2543 35.1793 49.4126 34.8056C49.5773 34.4256 49.8211 34.0931 50.1441 33.8081C50.4671 33.5231 50.8725 33.2983 51.3601 33.1336C51.8478 32.9626 52.4178 32.8771 53.0701 32.8771C53.4248 32.8771 53.7668 32.9088 54.0961 32.9721C54.4318 33.0355 54.7453 33.1241 55.0366 33.2381C55.328 33.3521 55.594 33.4883 55.8346 33.6466C56.0753 33.7986 56.2875 33.9665 56.4711 34.1501L55.8061 35.1856ZM61.0963 28.6591V36.6296H61.5333C61.717 36.6296 61.8563 36.6043 61.9513 36.5536C62.0526 36.503 62.1476 36.4111 62.2363 36.2781L64.0983 33.5041C64.206 33.3395 64.3326 33.2191 64.4783 33.1431C64.6303 33.0671 64.8203 33.0291 65.0483 33.0291H67.7463L65.2003 36.5346C65.08 36.6993 64.947 36.845 64.8013 36.9716C64.662 37.0983 64.51 37.2123 64.3453 37.3136C64.6303 37.529 64.8773 37.814 65.0863 38.1686L67.8603 42.8806H65.2003C64.9786 42.8806 64.7855 42.8458 64.6208 42.7761C64.4625 42.7001 64.3326 42.5703 64.2313 42.3866L62.3693 38.9001C62.2806 38.7418 62.1888 38.6405 62.0938 38.5961C61.9988 38.5455 61.8563 38.5201 61.6663 38.5201H61.0963V42.8806H58.1513V28.6591H61.0963ZM73.1266 45.4361C73.0379 45.6325 72.9302 45.775 72.8036 45.8636C72.6769 45.9586 72.4742 46.0061 72.1956 46.0061H69.9916L71.8916 42.0161L67.9586 33.0291H70.5616C70.7896 33.0291 70.9669 33.0798 71.0936 33.1811C71.2202 33.2825 71.3089 33.4028 71.3596 33.5421L72.9746 37.7886C73.1266 38.1813 73.2501 38.574 73.3451 38.9666C73.4084 38.764 73.4781 38.5645 73.5541 38.3681C73.6301 38.1718 73.7029 37.9723 73.7726 37.7696L75.2356 33.5421C75.2862 33.3965 75.3844 33.2761 75.5301 33.1811C75.6821 33.0798 75.8436 33.0291 76.0146 33.0291H78.3896L73.1266 45.4361Z" fill="white"/>
</g>
<defs>
<clipPath id="clip0_33_18382">
<rect width="81" height="46" fill="white"/>
</clipPath>
</defs>
</svg>
