<svg width="81" height="46" viewBox="0 0 81 46" fill="none" xmlns="http://www.w3.org/2000/svg">
<path d="M4.10071 30.0404C3.49783 30.0404 2.81697 29.9884 2.05816 29.8845C1.64237 29.8325 1.35651 29.7234 1.20059 29.5571C1.04467 29.3908 0.977104 29.1205 0.997896 28.7463C1.07066 27.7172 1.24217 26.449 1.51243 24.9418C1.7827 23.4242 2.11013 21.9637 2.49474 20.5604C2.5675 20.3006 2.71303 20.1186 2.93132 20.0147C3.14961 19.9107 3.43546 19.8588 3.78889 19.8588C4.42296 19.8588 4.73999 20.0355 4.73999 20.3889C4.73999 20.5344 4.70881 20.7007 4.64643 20.8878C4.37618 21.7194 4.10592 22.8369 3.83567 24.2401C3.5654 25.6331 3.3731 26.9636 3.25875 28.2317C3.57059 28.2629 3.92402 28.2785 4.31902 28.2785C6.13808 28.2785 7.4946 27.7276 8.38854 26.6258C9.29291 25.5239 9.74507 24.0531 9.74507 22.2132C9.74507 20.9762 9.39164 20.0199 8.68481 19.3442C7.97795 18.6686 6.98007 18.3307 5.69113 18.3307C4.85953 18.3307 4.03317 18.4607 3.21198 18.7205C2.40119 18.9804 1.66836 19.3234 1.01349 19.7496C0.878354 19.8432 0.732829 19.89 0.57691 19.89C0.400198 19.89 0.259869 19.8172 0.155921 19.6717C0.0519736 19.5157 0 19.3286 0 19.1104C0 18.8609 0.0415791 18.6582 0.124737 18.5023C0.207895 18.3359 0.348224 18.1852 0.545724 18.0501C1.26296 17.5615 2.10494 17.1925 3.07165 16.943C4.03834 16.6832 4.96868 16.5532 5.86262 16.5532C7.13079 16.5532 8.22744 16.7767 9.15257 17.2237C10.0777 17.6603 10.7897 18.3048 11.2887 19.1571C11.7876 20.0095 12.0371 21.0386 12.0371 22.2444C12.0371 23.8139 11.7253 25.1861 11.1016 26.3607C10.4779 27.5249 9.56837 28.4292 8.37295 29.0737C7.17757 29.7182 5.7535 30.0404 4.10071 30.0404Z" fill="white"/>
<path d="M15.3178 30.0404C14.6733 30.0404 14.1588 29.8065 13.7742 29.3388C13.3896 28.871 13.1973 28.2577 13.1973 27.4989C13.1973 26.6673 13.3896 25.8825 13.7742 25.1445C14.1588 24.3961 14.6681 23.7984 15.3022 23.3514C15.9467 22.894 16.6275 22.6653 17.3448 22.6653C17.5734 22.6653 17.7242 22.7121 17.7969 22.8057C17.8801 22.8888 17.9476 23.0448 17.9996 23.2734C18.2179 23.2319 18.4466 23.2111 18.6857 23.2111C19.195 23.2111 19.4497 23.393 19.4497 23.7568C19.4497 23.9751 19.3717 24.4948 19.2158 25.316C18.9767 26.5114 18.8572 27.343 18.8572 27.8108C18.8572 27.9666 18.8936 28.0914 18.9663 28.185C19.0495 28.2785 19.1534 28.3253 19.2782 28.3253C19.4757 28.3253 19.7148 28.2005 19.9954 27.9511C20.2761 27.6912 20.6555 27.2754 21.1336 26.7037C21.2584 26.5582 21.3987 26.4854 21.5546 26.4854C21.6898 26.4854 21.7937 26.5478 21.8665 26.6725C21.9496 26.7972 21.9912 26.9688 21.9912 27.1871C21.9912 27.6028 21.8925 27.9251 21.695 28.1538C21.2688 28.6839 20.8166 29.1309 20.3384 29.4947C19.8603 29.8585 19.3977 30.0404 18.9507 30.0404C18.6077 30.0404 18.2907 29.9261 17.9996 29.6974C17.719 29.4583 17.5059 29.1361 17.3604 28.7307C16.8198 29.6038 16.139 30.0404 15.3178 30.0404ZM15.8791 28.4656C16.1078 28.4656 16.3261 28.3305 16.534 28.0602C16.7419 27.79 16.8926 27.4313 16.9862 26.9844L17.5631 24.1154C17.1265 24.1258 16.7211 24.2921 16.3469 24.6144C15.9831 24.9262 15.692 25.342 15.4737 25.8617C15.2554 26.3815 15.1463 26.9324 15.1463 27.5145C15.1463 27.8367 15.2087 28.0758 15.3334 28.2317C15.4685 28.3877 15.6504 28.4656 15.8791 28.4656Z" fill="white"/>
<path d="M22.4547 30.0404C22.0597 30.0404 21.7791 29.8325 21.6127 29.4167C21.4568 29.0009 21.3788 28.3357 21.3788 27.4209C21.3788 26.0696 21.5711 24.7859 21.9558 23.5697C22.0493 23.2682 22.2 23.05 22.4079 22.9148C22.6262 22.7693 22.9277 22.6965 23.3123 22.6965C23.5202 22.6965 23.6657 22.7225 23.7488 22.7745C23.832 22.8265 23.8736 22.9252 23.8736 23.0707C23.8736 23.237 23.7956 23.6113 23.6397 24.1934C23.5357 24.6092 23.4526 24.973 23.3902 25.2848C23.3279 25.5967 23.2759 25.9813 23.2343 26.4386C23.5773 25.5447 23.9619 24.817 24.3881 24.2557C24.8143 23.6944 25.2301 23.2942 25.6355 23.0551C26.0513 22.8161 26.4307 22.6965 26.7737 22.6965C27.4494 22.6965 27.7872 23.0344 27.7872 23.71C27.7872 23.8451 27.7404 24.1726 27.6469 24.6923C27.5637 25.1081 27.5221 25.368 27.5221 25.4719C27.5221 25.8357 27.6521 26.0177 27.9119 26.0177C28.203 26.0177 28.5772 25.789 29.0346 25.3316C29.1697 25.1965 29.31 25.1289 29.4556 25.1289C29.5907 25.1289 29.6946 25.1913 29.7674 25.316C29.8506 25.4303 29.8921 25.5863 29.8921 25.7838C29.8921 26.1684 29.7882 26.4698 29.5803 26.6881C29.2893 26.9896 28.9462 27.2494 28.5512 27.4677C28.1666 27.6756 27.756 27.7796 27.3194 27.7796C26.7685 27.7796 26.3475 27.6392 26.0565 27.3586C25.7758 27.0779 25.6355 26.6985 25.6355 26.2203C25.6355 26.0644 25.6511 25.9085 25.6823 25.7526C25.7031 25.5447 25.7135 25.4044 25.7135 25.3316C25.7135 25.1653 25.6563 25.0821 25.5419 25.0821C25.386 25.0821 25.1781 25.2588 24.9182 25.6122C24.6688 25.9553 24.4193 26.4127 24.1699 26.9844C23.9204 27.5561 23.7177 28.159 23.5617 28.793C23.4474 29.2816 23.3123 29.6142 23.1563 29.7909C23.0108 29.9572 22.7769 30.0404 22.4547 30.0404Z" fill="white"/>
<path d="M38.0792 26.4854C38.2145 26.4854 38.3183 26.5478 38.3911 26.6725C38.4742 26.7973 38.516 26.9688 38.516 27.1871C38.516 27.6028 38.417 27.9251 38.2196 28.1538C37.7518 28.7255 37.2789 29.1828 36.8007 29.5259C36.3225 29.8689 35.756 30.0404 35.1012 30.0404C34.3008 30.0404 33.6563 29.8117 33.1677 29.3544C32.6792 28.897 32.4349 28.2889 32.4349 27.5301C32.4349 27.1247 32.6428 26.8337 33.0586 26.6569C33.516 26.4594 33.8434 26.2515 34.0409 26.0332C34.2384 25.8046 34.3372 25.5291 34.3372 25.2069C34.3372 25.0198 34.2956 24.8794 34.2124 24.7859C34.1397 24.6923 34.0461 24.6456 33.9318 24.6456C33.6511 24.6456 33.3393 24.8482 32.9962 25.2537C32.6636 25.659 32.3517 26.184 32.0607 26.8284C31.7697 27.4625 31.541 28.1174 31.3747 28.7931C31.2603 29.2816 31.1252 29.6142 30.9692 29.7909C30.8237 29.9573 30.5898 30.0404 30.2676 30.0404C29.9454 30.0404 29.7063 29.9261 29.5504 29.6974C29.4048 29.4583 29.3061 29.0945 29.2541 28.6059C29.2022 28.1174 29.1761 27.4002 29.1761 26.4542C29.1761 24.8534 29.3373 23.1851 29.6595 21.4492C29.9922 19.7132 30.4755 18.258 31.1096 17.0834C31.7541 15.8984 32.5233 15.3059 33.4172 15.3059C33.8954 15.3059 34.28 15.5138 34.571 15.9296C34.8725 16.335 35.0232 16.8651 35.0232 17.52C35.0232 18.5698 34.7166 19.6613 34.1033 20.7943C33.49 21.9169 32.4921 23.2319 31.1096 24.7391C31.0784 25.2796 31.0628 25.8357 31.0628 26.4075C31.5617 25.1081 32.1335 24.1674 32.7779 23.5853C33.4224 22.9928 34.0253 22.6965 34.5866 22.6965C35.1063 22.6965 35.5222 22.8732 35.834 23.2267C36.1562 23.5801 36.3174 24.0167 36.3174 24.5364C36.3174 25.1081 36.1718 25.6331 35.8808 26.1112C35.5897 26.5894 35.0908 27.0156 34.3839 27.3898C34.4255 27.6704 34.5502 27.8991 34.7581 28.0758C34.9764 28.2421 35.2363 28.3253 35.5377 28.3253C35.86 28.3253 36.1718 28.2006 36.4733 27.9511C36.7747 27.7016 37.1699 27.2858 37.6584 26.7037C37.7829 26.5582 37.9233 26.4854 38.0792 26.4854ZM33.0898 16.8495C32.9027 16.8495 32.6948 17.1198 32.4661 17.6603C32.2374 18.1904 32.0139 18.9129 31.7956 19.8276C31.5878 20.7319 31.4162 21.7194 31.2811 22.7901C31.9256 22.0313 32.4557 21.2049 32.8715 20.311C33.2977 19.417 33.5108 18.6062 33.5108 17.8786C33.5108 17.5459 33.4744 17.2913 33.4016 17.1146C33.3289 16.9379 33.2249 16.8495 33.0898 16.8495Z" fill="white"/>
<path d="M44.104 25.5967C44.3948 25.5967 44.5403 25.815 44.5403 26.2515C44.5403 27.0727 43.8959 27.4833 42.6071 27.4833C42.3577 27.4833 41.9989 27.4365 41.5311 27.343C41.6663 27.9875 41.7753 28.7047 41.8585 29.4947C41.9523 30.2743 41.9989 30.9188 41.9989 31.4281C41.9989 32.5508 41.8171 33.4083 41.4531 34.0008C41.0895 34.5933 40.6114 34.8896 40.0187 34.8896C39.2705 34.8896 38.7351 34.3594 38.4129 33.2992C38.101 32.2389 37.9451 30.6381 37.9451 28.4968C37.9451 26.501 38.1579 24.4792 38.5843 22.4315C39.0207 20.3733 39.6134 18.6738 40.3616 17.3329C41.1206 15.9815 41.9523 15.3059 42.8565 15.3059C43.345 15.3059 43.7245 15.5242 43.9946 15.9607C44.2754 16.3973 44.4158 16.9846 44.4158 17.7227C44.4158 20.1654 42.9552 22.8265 40.0342 25.7058C39.9304 26.7245 39.8783 27.6184 39.8783 28.3877C39.8783 29.4583 39.9149 30.555 39.9877 31.6776C40.0605 32.8106 40.1798 33.3771 40.3461 33.3771C40.658 33.3771 40.8139 32.8366 40.8139 31.7556C40.8139 30.9447 40.7566 30.16 40.6424 29.4011C40.5386 28.6423 40.393 27.842 40.2057 27C40.1953 26.8648 40.2371 26.6933 40.3306 26.4854C40.4344 26.2775 40.5593 26.0956 40.7049 25.9397C40.8505 25.7838 40.9802 25.7058 41.0947 25.7058C41.3024 25.7058 41.5518 25.7162 41.843 25.737C41.9364 25.7474 42.0458 25.7526 42.1703 25.7526C42.5864 25.7526 43.0487 25.7162 43.5582 25.6434C43.6413 25.6331 43.7296 25.6226 43.8231 25.6123C43.9166 25.6019 44.0105 25.5967 44.104 25.5967ZM42.5291 16.8495C42.3418 16.8495 42.1083 17.1665 41.8274 17.8006C41.5573 18.4347 41.2869 19.2767 41.0168 20.3265C40.7463 21.366 40.5124 22.4679 40.3151 23.6321C41.1464 22.6862 41.7857 21.7038 42.2328 20.6851C42.6799 19.6561 42.9086 18.6946 42.919 17.8006C42.919 17.1665 42.7889 16.8495 42.5291 16.8495Z" fill="white"/>
<path d="M51.94 25.1757C52.0749 25.1757 52.1791 25.2432 52.2519 25.3784C52.3247 25.5135 52.3609 25.685 52.3609 25.8929C52.3609 26.3919 52.2101 26.6881 51.9086 26.7817C51.2849 27 50.5991 27.1247 49.8505 27.1559C49.6532 28.029 49.2633 28.7307 48.681 29.2608C48.099 29.7805 47.4391 30.0404 46.7008 30.0404C46.0771 30.0404 45.5421 29.8897 45.095 29.5883C44.6582 29.2868 44.3257 28.8866 44.0969 28.3877C43.8682 27.8887 43.754 27.3482 43.754 26.7661C43.754 25.9761 43.9048 25.2744 44.2063 24.6611C44.5078 24.0375 44.9235 23.5541 45.4534 23.2111C45.9836 22.8576 46.5711 22.6809 47.2155 22.6809C48.0055 22.6809 48.6396 22.9564 49.1177 23.5073C49.6062 24.0478 49.8922 24.7183 49.9754 25.5187C50.4638 25.4875 51.0458 25.3836 51.7216 25.2069C51.8048 25.1861 51.8776 25.1757 51.94 25.1757ZM46.8257 28.3877C47.1583 28.3877 47.4443 28.2525 47.6833 27.9822C47.9327 27.712 48.099 27.3222 48.1822 26.8128C47.86 26.5946 47.6105 26.3087 47.4339 25.9553C47.2673 25.6019 47.1841 25.2276 47.1841 24.8326C47.1841 24.6663 47.2 24.5 47.2311 24.3337H47.1531C46.7374 24.3337 46.389 24.5364 46.1085 24.9418C45.838 25.3368 45.7032 25.8981 45.7032 26.6258C45.7032 27.1975 45.8122 27.634 46.0305 27.9355C46.2593 28.2369 46.5242 28.3877 46.8257 28.3877Z" fill="white"/>
<path d="M57.9456 24.8326C58.1743 24.8326 58.3664 24.9158 58.5224 25.0821C58.6886 25.2381 58.7718 25.4356 58.7718 25.6746C58.7718 25.8097 58.7407 25.9553 58.6783 26.1112C58.512 26.4958 58.2781 26.8181 57.9766 27.0779C57.6751 27.3378 57.3425 27.4677 56.9789 27.4677C56.6878 27.4677 56.4384 27.3638 56.2303 27.1559C56.033 26.948 55.934 26.6673 55.934 26.3139C55.934 26.1164 55.9447 25.9033 55.9654 25.6746C55.9861 25.5083 55.9964 25.394 55.9964 25.3316C55.9964 25.2484 55.9757 25.1861 55.934 25.1445C55.903 25.1029 55.8616 25.0821 55.8095 25.0821C55.6639 25.0821 55.4666 25.2588 55.2168 25.6122C54.9674 25.9553 54.718 26.4127 54.4685 26.9844C54.2191 27.5561 54.0163 28.159 53.8603 28.793C53.7462 29.292 53.6161 29.6246 53.4705 29.7909C53.3249 29.9572 53.0859 30.0404 52.7533 30.0404C52.3583 30.0404 52.0778 29.8325 51.9112 29.4167C51.7556 29.0009 51.6777 28.3357 51.6777 27.4209C51.6777 26.0696 51.8698 24.7859 52.2545 23.5697C52.348 23.2682 52.4987 23.05 52.7067 22.9148C52.9247 22.7693 53.2263 22.6965 53.6109 22.6965C53.819 22.6965 53.9642 22.7225 54.0477 22.7745C54.1308 22.8265 54.1722 22.9252 54.1722 23.0707C54.1722 23.237 54.0942 23.6113 53.9383 24.1934C53.8345 24.6092 53.7513 24.973 53.6889 25.2848C53.6264 25.5967 53.5747 25.9813 53.533 26.4386C53.8759 25.5447 54.2605 24.817 54.6869 24.2557C55.113 23.6944 55.5286 23.2942 55.934 23.0551C56.3397 22.8161 56.7085 22.6965 57.041 22.6965C57.3425 22.6965 57.5713 22.7849 57.7272 22.9616C57.8935 23.1279 57.9766 23.3774 57.9766 23.71C57.9766 23.9075 57.9197 24.2817 57.8052 24.8326H57.9456Z" fill="white"/>
<path d="M66.9441 26.4854C67.0789 26.4854 67.1831 26.5478 67.2559 26.6725C67.339 26.7972 67.3804 26.9688 67.3804 27.1871C67.3804 27.6028 67.2818 27.9251 67.0845 28.1538C66.6374 28.7047 66.1489 29.1569 65.6186 29.5103C65.0884 29.8637 64.4806 30.0404 63.7944 30.0404C61.6738 30.0404 60.6137 28.5488 60.6137 25.5655C60.6137 25.1081 60.6292 24.6456 60.6603 24.1778H60.0524C59.7406 24.1778 59.5274 24.1206 59.4128 24.0063C59.309 23.8919 59.2569 23.71 59.2569 23.4606C59.2569 22.8784 59.4908 22.5874 59.9586 22.5874H60.8476C61.0242 21.444 61.2943 20.3993 61.6583 19.4534C62.0219 18.5074 62.4586 17.7538 62.9678 17.1925C63.4877 16.6312 64.0438 16.3505 64.6365 16.3505C65.0729 16.3505 65.4158 16.5428 65.6656 16.9274C65.915 17.3121 66.0395 17.7954 66.0395 18.3775C66.0395 19.9887 65.3641 21.392 64.0128 22.5874H65.7591C65.9253 22.5874 66.0447 22.6238 66.1175 22.6965C66.1903 22.7693 66.2268 22.9044 66.2268 23.1019C66.2268 23.8192 65.6393 24.1778 64.4647 24.1778H62.5625C62.5418 24.6975 62.5314 25.1029 62.5314 25.394C62.5314 26.475 62.656 27.2339 62.9057 27.6704C63.1655 28.107 63.5709 28.3253 64.1218 28.3253C64.5689 28.3253 64.9639 28.1902 65.3068 27.9199C65.6497 27.6496 66.0554 27.2442 66.5228 26.7037C66.6477 26.5582 66.7881 26.4854 66.9441 26.4854ZM64.2153 17.8474C64.0593 17.8474 63.8827 18.0449 63.6854 18.4399C63.4981 18.8245 63.3163 19.365 63.1396 20.0615C62.973 20.7475 62.833 21.5115 62.7184 22.3535C63.3318 21.8234 63.7892 21.2309 64.0907 20.576C64.4026 19.9107 64.5585 19.3079 64.5585 18.7673C64.5585 18.154 64.444 17.8474 64.2153 17.8474Z" fill="white"/>
<path d="M68.3253 30.0404C67.8575 30.0404 67.4728 29.8273 67.1713 29.4011C66.8801 28.9646 66.7346 28.424 66.7346 27.7796C66.7346 27 66.7867 26.2879 66.8905 25.6434C66.9947 24.9886 67.1661 24.2973 67.4052 23.5697C67.509 23.2578 67.6546 23.0344 67.8416 22.8992C68.0289 22.7641 68.3253 22.6965 68.7306 22.6965C68.9593 22.6965 69.1153 22.7329 69.1984 22.8057C69.2919 22.8784 69.3384 22.9876 69.3384 23.1331C69.3384 23.2163 69.2815 23.4969 69.167 23.9751C69.0632 24.3597 68.98 24.7079 68.9176 25.0198C68.7096 26.1112 68.6057 26.8389 68.6057 27.2027C68.6057 27.4209 68.6316 27.5769 68.6837 27.6704C68.7358 27.7536 68.8189 27.7952 68.9331 27.7952C69.089 27.7952 69.2815 27.6392 69.5103 27.3274C69.7493 27.0155 69.9988 26.5426 70.2585 25.9085C70.5286 25.2744 70.7888 24.4948 71.0382 23.5697C71.1213 23.2578 71.2462 23.0344 71.4125 22.8992C71.5891 22.7641 71.8489 22.6965 72.1921 22.6965C72.4312 22.6965 72.5975 22.7277 72.691 22.7901C72.7844 22.842 72.8314 22.946 72.8314 23.1019C72.8314 23.3618 72.7013 24.0738 72.4415 25.2381C72.1504 26.5686 72.0048 27.3897 72.0048 27.7016C72.0048 27.8991 72.0465 28.055 72.1297 28.1694C72.2128 28.2733 72.3218 28.3253 72.4571 28.3253C72.6651 28.3253 72.9093 28.2005 73.1898 27.9511C73.481 27.6912 73.8656 27.2754 74.3437 26.7037C74.4683 26.5582 74.6087 26.4854 74.7646 26.4854C74.8998 26.4854 75.0037 26.5478 75.0765 26.6725C75.1596 26.7972 75.2014 26.9688 75.2014 27.1871C75.2014 27.6028 75.1023 27.9251 74.905 28.1538C74.4579 28.7047 73.9746 29.1569 73.4551 29.5103C72.9455 29.8637 72.3636 30.0404 71.7084 30.0404C71.2096 30.0404 70.8405 29.8481 70.6014 29.4635C70.3727 29.0789 70.2585 28.5384 70.2585 27.8419C70.0819 28.5488 69.8166 29.0945 69.4633 29.4791C69.1097 29.8533 68.7306 30.0404 68.3253 30.0404Z" fill="white"/>
<path d="M75.6677 30.0404C75.2727 30.0404 74.9919 29.8325 74.8256 29.4167C74.6696 29.0009 74.5917 28.3357 74.5917 27.4209C74.5917 26.0696 74.7842 24.7859 75.1688 23.5697C75.2623 23.2682 75.4131 23.05 75.6207 22.9148C75.8391 22.7693 76.1406 22.6965 76.5253 22.6965C76.7329 22.6965 76.8785 22.7225 76.9617 22.7745C77.0448 22.8265 77.0866 22.9252 77.0866 23.0707C77.0866 23.237 77.0086 23.6113 76.8527 24.1934C76.7488 24.6092 76.6657 24.973 76.6033 25.2848C76.5408 25.5967 76.4887 25.9813 76.4473 26.4386C76.7902 25.5447 77.1749 24.817 77.6009 24.2557C78.0273 23.6944 78.443 23.2942 78.8484 23.0551C79.264 22.8161 79.6435 22.6965 79.9868 22.6965C80.3193 22.6965 80.5688 22.7849 80.735 22.9616C80.9117 23.1279 81 23.3774 81 23.71C81 23.9803 80.9431 24.4896 80.8285 25.2381C80.7247 25.8721 80.6416 26.475 80.5791 27.0467C80.5167 27.608 80.4856 28.2369 80.4856 28.9334C80.4856 29.3284 80.4025 29.6142 80.2362 29.7909C80.0803 29.9572 79.8205 30.0404 79.4566 30.0404C79.1137 30.0404 78.8639 29.9521 78.7079 29.7753C78.552 29.5986 78.4741 29.3336 78.4741 28.9802C78.4741 28.5644 78.5468 27.8783 78.6924 26.922C78.8173 26.0904 78.8798 25.5603 78.8798 25.3316C78.8798 25.1653 78.8225 25.0821 78.7079 25.0821C78.5731 25.0821 78.3806 25.2588 78.1312 25.6122C77.8921 25.9553 77.6427 26.4127 77.3829 26.9844C77.1331 27.5561 76.9306 28.159 76.7747 28.793C76.6602 29.2816 76.5253 29.6142 76.3694 29.7909C76.2238 29.9572 75.9899 30.0404 75.6677 30.0404Z" fill="white"/>
</svg>
